<?xml version="1.0" standalone="no" ?>
<!DOCTYPE svg PUBLIC "-//W3C//DTD SVG 1.1//EN" "http://www.w3.org/Graphics/SVG/1.1/DTD/svg11.dtd">
<svg width="1697px" height="2470px" xmlns="http://www.w3.org/2000/svg" version="1.1" >
	<polygon points="787.455,886.943 897.064,893.001 997.363,893.847 996.664,973.872 827.031,972.664 787.044,971.961 " fill="rgb(182,208,249)" stroke-width="4" stroke="rgb(182,208,249)" />
	<line x1="457.585" y1="54.4063" x2="633.451" y2="43.4339" stroke-width="8.64358" stroke="rgb(64,64,64)" />
	<line x1="633.451" y1="43.4339" x2="961.391" y2="21.436" stroke-width="8.64358" stroke="rgb(64,64,64)" />
	<line x1="961.391" y1="21.436" x2="1212.08" y2="4.39174" stroke-width="8.64358" stroke="rgb(64,64,64)" />
	<line x1="339.458" y1="69.9216" x2="631.397" y2="52.0454" stroke-width="8.64358" stroke="rgb(64,64,64)" />
	<line x1="631.397" y1="52.0454" x2="885.991" y2="34.5743" stroke-width="8.64358" stroke="rgb(64,64,64)" />
	<line x1="885.991" y1="34.5743" x2="1109.52" y2="20.5498" stroke-width="8.64358" stroke="rgb(64,64,64)" />
	<line x1="1109.52" y1="20.5498" x2="1152.05" y2="17.9016" stroke-width="8.64358" stroke="rgb(64,64,64)" />
	<line x1="1152.05" y1="17.9016" x2="1323.42" y2="6.2899" stroke-width="8.64358" stroke="rgb(64,64,64)" />
	<line x1="349.477" y1="1675.47" x2="12.6536" y2="1037.23" stroke-width="7.08955" stroke="rgb(64,64,64)" />
	<line x1="12.6536" y1="1037.23" x2="203.896" y2="908.271" stroke-width="7.08955" stroke="rgb(64,64,64)" />
	<line x1="203.896" y1="908.271" x2="315.559" y2="523.88" stroke-width="7.08955" stroke="rgb(64,64,64)" />
	<line x1="315.559" y1="523.88" x2="320.278" y2="82.5799" stroke-width="7.08955" stroke="rgb(64,64,64)" />
	<line x1="1125.8" y1="34.5893" x2="1127.42" y2="324.617" stroke-width="8.64358" stroke="rgb(64,64,64)" />
	<line x1="1127.42" y1="324.617" x2="1128.5" y2="653.997" stroke-width="8.64358" stroke="rgb(64,64,64)" />
	<line x1="1128.5" y1="653.997" x2="1128.5" y2="704.91" stroke-width="8.64358" stroke="rgb(64,64,64)" />
	<line x1="1128.5" y1="704.91" x2="1128" y2="1031.89" stroke-width="8.64358" stroke="rgb(64,64,64)" />
	<line x1="1128" y1="1031.89" x2="1126.95" y2="1389.82" stroke-width="8.64358" stroke="rgb(64,64,64)" />
	<line x1="1126.95" y1="1389.82" x2="1127.07" y2="1665.64" stroke-width="8.64358" stroke="rgb(64,64,64)" />
	<line x1="1127.07" y1="1665.64" x2="1125.87" y2="1723.88" stroke-width="8.64358" stroke="rgb(64,64,64)" />
	<line x1="1125.87" y1="1723.88" x2="1126.65" y2="1971.89" stroke-width="8.64358" stroke="rgb(64,64,64)" />
	<line x1="1126.65" y1="1971.89" x2="1147.58" y2="2023.05" stroke-width="8.64358" stroke="rgb(64,64,64)" />
	<line x1="1147.58" y1="2023.05" x2="1170.21" y2="2054.56" stroke-width="8.64358" stroke="rgb(64,64,64)" />
	<line x1="1170.21" y1="2054.56" x2="1176.55" y2="2080.7" stroke-width="8.64358" stroke="rgb(64,64,64)" />
	<line x1="1176.55" y1="2080.7" x2="1153.3" y2="2262.26" stroke-width="8.64358" stroke="rgb(64,64,64)" />
	<line x1="1153.3" y1="2262.26" x2="1129.95" y2="2439.1" stroke-width="8.64358" stroke="rgb(64,64,64)" />
	<line x1="1143.55" y1="2436.55" x2="1167.1" y2="2259.97" stroke-width="8.64358" stroke="rgb(64,64,64)" />
	<line x1="1167.1" y1="2259.97" x2="1192.19" y2="2078.71" stroke-width="8.64358" stroke="rgb(64,64,64)" />
	<line x1="1192.19" y1="2078.71" x2="1166.15" y2="2027.17" stroke-width="8.64358" stroke="rgb(64,64,64)" />
	<line x1="1166.15" y1="2027.17" x2="1135.36" y2="1976.83" stroke-width="8.64358" stroke="rgb(64,64,64)" />
	<line x1="1135.36" y1="1976.83" x2="1136.34" y2="1723.6" stroke-width="8.64358" stroke="rgb(64,64,64)" />
	<line x1="1136.34" y1="1723.6" x2="1137.44" y2="1660.91" stroke-width="8.64358" stroke="rgb(64,64,64)" />
	<line x1="1137.44" y1="1660.91" x2="1137.08" y2="1310.03" stroke-width="8.64358" stroke="rgb(64,64,64)" />
	<line x1="1137.08" y1="1310.03" x2="1138.25" y2="964.167" stroke-width="8.64358" stroke="rgb(64,64,64)" />
	<line x1="1138.25" y1="964.167" x2="1136.92" y2="704.588" stroke-width="8.64358" stroke="rgb(64,64,64)" />
	<line x1="1136.92" y1="704.588" x2="1136.89" y2="654.987" stroke-width="8.64358" stroke="rgb(64,64,64)" />
	<line x1="1136.89" y1="654.987" x2="1137.01" y2="284.434" stroke-width="8.64358" stroke="rgb(64,64,64)" />
	<line x1="1137.01" y1="284.434" x2="1139.71" y2="27.839" stroke-width="8.64358" stroke="rgb(64,64,64)" />
	<line x1="1337.64" y1="20.8048" x2="1346.38" y2="177.164" stroke-width="8.64358" stroke="rgb(64,64,64)" />
	<line x1="1346.38" y1="177.164" x2="1353.73" y2="416.68" stroke-width="8.64358" stroke="rgb(64,64,64)" />
	<line x1="1353.73" y1="416.68" x2="1361.22" y2="659.087" stroke-width="8.64358" stroke="rgb(64,64,64)" />
	<line x1="1361.22" y1="659.087" x2="1363.14" y2="706.895" stroke-width="8.64358" stroke="rgb(64,64,64)" />
	<line x1="1363.14" y1="706.895" x2="1377.65" y2="1109.29" stroke-width="8.64358" stroke="rgb(64,64,64)" />
	<line x1="1377.65" y1="1109.29" x2="1389.93" y2="1476.21" stroke-width="8.64358" stroke="rgb(64,64,64)" />
	<line x1="1402.1" y1="1456.29" x2="1390.06" y2="1138.99" stroke-width="8.64358" stroke="rgb(64,64,64)" />
	<line x1="1390.06" y1="1138.99" x2="1380.59" y2="919.363" stroke-width="8.64358" stroke="rgb(64,64,64)" />
	<line x1="1380.59" y1="919.363" x2="1374.42" y2="707.168" stroke-width="8.64358" stroke="rgb(64,64,64)" />
	<line x1="1374.42" y1="707.168" x2="1372.71" y2="659.101" stroke-width="8.64358" stroke="rgb(64,64,64)" />
	<line x1="1372.71" y1="659.101" x2="1358.65" y2="272.198" stroke-width="8.64358" stroke="rgb(64,64,64)" />
	<line x1="1358.65" y1="272.198" x2="1351.96" y2="13.8018" stroke-width="8.64358" stroke="rgb(64,64,64)" />
	<line x1="577.307" y1="1696.72" x2="381.001" y2="1695.39" stroke-width="7.08955" stroke="rgb(64,64,64)" />
	<line x1="721.253" y1="1130.72" x2="673.24" y2="1139.53" stroke-width="8.64358" stroke="rgb(64,64,64)" />
	<line x1="673.24" y1="1139.53" x2="639.908" y2="1160.51" stroke-width="8.64358" stroke="rgb(64,64,64)" />
	<line x1="639.908" y1="1160.51" x2="610.521" y2="1196.54" stroke-width="8.64358" stroke="rgb(64,64,64)" />
	<line x1="610.521" y1="1196.54" x2="605.213" y2="1229.48" stroke-width="8.64358" stroke="rgb(64,64,64)" />
	<line x1="605.213" y1="1229.48" x2="601.525" y2="1518.07" stroke-width="8.64358" stroke="rgb(64,64,64)" />
	<line x1="601.525" y1="1518.07" x2="600.237" y2="1664.74" stroke-width="8.64358" stroke="rgb(64,64,64)" />
	<line x1="600.237" y1="1664.74" x2="598.876" y2="1975.95" stroke-width="8.64358" stroke="rgb(64,64,64)" />
	<line x1="598.876" y1="1975.95" x2="597.56" y2="2200.3" stroke-width="8.64358" stroke="rgb(64,64,64)" />
	<line x1="597.56" y1="2200.3" x2="603.447" y2="2236.92" stroke-width="8.64358" stroke="rgb(64,64,64)" />
	<line x1="603.447" y1="2236.92" x2="618.993" y2="2264.33" stroke-width="8.64358" stroke="rgb(64,64,64)" />
	<line x1="618.993" y1="2264.33" x2="641.531" y2="2291.11" stroke-width="8.64358" stroke="rgb(64,64,64)" />
	<line x1="641.531" y1="2291.11" x2="691.686" y2="2321.19" stroke-width="8.64358" stroke="rgb(64,64,64)" />
	<line x1="720.949" y1="1143.31" x2="674.749" y2="1153.48" stroke-width="8.64358" stroke="rgb(64,64,64)" />
	<line x1="674.749" y1="1153.48" x2="634.596" y2="1185.05" stroke-width="8.64358" stroke="rgb(64,64,64)" />
	<line x1="634.596" y1="1185.05" x2="616.235" y2="1214.79" stroke-width="8.64358" stroke="rgb(64,64,64)" />
	<line x1="616.235" y1="1214.79" x2="610.865" y2="1394.69" stroke-width="8.64358" stroke="rgb(64,64,64)" />
	<line x1="610.865" y1="1394.69" x2="610.131" y2="1662.88" stroke-width="8.64358" stroke="rgb(64,64,64)" />
	<line x1="610.131" y1="1662.88" x2="607.631" y2="1987.18" stroke-width="8.64358" stroke="rgb(64,64,64)" />
	<line x1="607.631" y1="1987.18" x2="606.987" y2="2200.79" stroke-width="8.64358" stroke="rgb(64,64,64)" />
	<line x1="606.987" y1="2200.79" x2="612.948" y2="2234.26" stroke-width="8.64358" stroke="rgb(64,64,64)" />
	<line x1="612.948" y1="2234.26" x2="626.936" y2="2258.22" stroke-width="8.64358" stroke="rgb(64,64,64)" />
	<line x1="626.936" y1="2258.22" x2="649.691" y2="2284.49" stroke-width="8.64358" stroke="rgb(64,64,64)" />
	<line x1="649.691" y1="2284.49" x2="684.248" y2="2306.32" stroke-width="8.64358" stroke="rgb(64,64,64)" />
	<line x1="684.248" y1="2306.32" x2="710.728" y2="2314.3" stroke-width="8.64358" stroke="rgb(64,64,64)" />
	<line x1="767.102" y1="2316.19" x2="816.568" y2="2289.83" stroke-width="7.08955" stroke="rgb(64,64,64)" />
	<line x1="816.568" y1="2289.83" x2="845.247" y2="2257.72" stroke-width="7.08955" stroke="rgb(64,64,64)" />
	<line x1="845.247" y1="2257.72" x2="859.19" y2="2215.54" stroke-width="7.08955" stroke="rgb(64,64,64)" />
	<line x1="859.19" y1="2215.54" x2="863.901" y2="1977.89" stroke-width="7.08955" stroke="rgb(64,64,64)" />
	<line x1="863.901" y1="1977.89" x2="865.867" y2="1734.92" stroke-width="7.08955" stroke="rgb(64,64,64)" />
	<line x1="865.867" y1="1734.92" x2="865.945" y2="1672.2" stroke-width="7.08955" stroke="rgb(64,64,64)" />
	<line x1="865.945" y1="1672.2" x2="867.828" y2="1407.19" stroke-width="7.08955" stroke="rgb(64,64,64)" />
	<line x1="867.828" y1="1407.19" x2="865.274" y2="1232.61" stroke-width="7.08955" stroke="rgb(64,64,64)" />
	<line x1="865.274" y1="1232.61" x2="836.489" y2="1175.75" stroke-width="7.08955" stroke="rgb(64,64,64)" />
	<line x1="836.489" y1="1175.75" x2="798.978" y2="1148.87" stroke-width="7.08955" stroke="rgb(64,64,64)" />
	<line x1="798.978" y1="1148.87" x2="753.336" y2="1135.96" stroke-width="7.08955" stroke="rgb(64,64,64)" />
	<line x1="715.754" y1="2352.48" x2="715.062" y2="2440.64" stroke-width="7.08955" stroke="rgb(64,64,64)" />
	<line x1="745.164" y1="2434.54" x2="745.723" y2="2351.89" stroke-width="7.08955" stroke="rgb(64,64,64)" />
	<line x1="1109.44" y1="2455.67" x2="770.968" y2="2453.54" stroke-width="8.64358" stroke="rgb(64,64,64)" />
	<line x1="746.992" y1="2460.83" x2="917.035" y2="2462.57" stroke-width="8.64358" stroke="rgb(64,64,64)" />
	<line x1="917.035" y1="2462.57" x2="1109.04" y2="2464.06" stroke-width="8.64358" stroke="rgb(64,64,64)" />
	<line x1="1664.21" y1="1315.13" x2="1603.61" y2="1344.11" stroke-width="8.64358" stroke="rgb(64,64,64)" />
	<line x1="1603.61" y1="1344.11" x2="1435.71" y2="1466.55" stroke-width="8.64358" stroke="rgb(64,64,64)" />
	<line x1="1435.71" y1="1466.55" x2="1362.04" y2="1526.97" stroke-width="8.64358" stroke="rgb(64,64,64)" />
	<line x1="1362.04" y1="1526.97" x2="1170.66" y2="1669.85" stroke-width="8.64358" stroke="rgb(64,64,64)" />
	<line x1="1170.66" y1="1669.85" x2="1106.24" y2="1695.32" stroke-width="8.64358" stroke="rgb(64,64,64)" />
	<line x1="1106.24" y1="1695.32" x2="894.996" y2="1692.59" stroke-width="8.64358" stroke="rgb(64,64,64)" />
	<line x1="894.103" y1="1704.11" x2="1110.08" y2="1706.44" stroke-width="8.64358" stroke="rgb(64,64,64)" />
	<line x1="1110.08" y1="1706.44" x2="1165.33" y2="1686.77" stroke-width="8.64358" stroke="rgb(64,64,64)" />
	<line x1="1165.33" y1="1686.77" x2="1369.66" y2="1533.98" stroke-width="8.64358" stroke="rgb(64,64,64)" />
	<line x1="1369.66" y1="1533.98" x2="1434.73" y2="1481.49" stroke-width="8.64358" stroke="rgb(64,64,64)" />
	<line x1="1434.73" y1="1481.49" x2="1533.14" y2="1407.75" stroke-width="8.64358" stroke="rgb(64,64,64)" />
	<line x1="1533.14" y1="1407.75" x2="1602.4" y2="1360.09" stroke-width="8.64358" stroke="rgb(64,64,64)" />
	<line x1="1602.4" y1="1360.09" x2="1670.87" y2="1328.15" stroke-width="8.64358" stroke="rgb(64,64,64)" />
	<line x1="826.494" y1="977.9" x2="826.3" y2="1036.94" stroke-width="7.20298" stroke="rgb(64,64,64)" />
	<line x1="826.3" y1="1036.94" x2="834.015" y2="1108.25" stroke-width="7.20298" stroke="rgb(64,64,64)" />
	<line x1="834.015" y1="1108.25" x2="829.648" y2="1144.62" stroke-width="7.20298" stroke="rgb(64,64,64)" />
	<line x1="898.548" y1="704.083" x2="897.107" y2="882.767" stroke-width="7.20298" stroke="rgb(64,64,64)" />
	<line x1="1691.85" y1="1283.25" x2="1686.24" y2="996.801" stroke-width="8.64358" stroke="rgb(64,64,64)" />
	<line x1="1686.24" y1="996.801" x2="1681.13" y2="732.145" stroke-width="8.64358" stroke="rgb(64,64,64)" />
	<line x1="1681.13" y1="732.145" x2="1672.79" y2="703.601" stroke-width="8.64358" stroke="rgb(64,64,64)" />
	<line x1="1672.79" y1="703.601" x2="1648.86" y2="683.604" stroke-width="8.64358" stroke="rgb(64,64,64)" />
	<line x1="1648.86" y1="683.604" x2="1598.76" y2="676.886" stroke-width="8.64358" stroke="rgb(64,64,64)" />
	<line x1="1598.76" y1="676.886" x2="1389.91" y2="677.361" stroke-width="8.64358" stroke="rgb(64,64,64)" />
	<line x1="1389.91" y1="677.361" x2="1341.67" y2="678.56" stroke-width="8.64358" stroke="rgb(64,64,64)" />
	<line x1="1341.67" y1="678.56" x2="1158.7" y2="677.559" stroke-width="8.64358" stroke="rgb(64,64,64)" />
	<line x1="1158.7" y1="677.559" x2="1104.92" y2="678.885" stroke-width="8.64358" stroke="rgb(64,64,64)" />
	<line x1="1104.92" y1="678.885" x2="924.183" y2="678.984" stroke-width="8.64358" stroke="rgb(64,64,64)" />
	<line x1="1159.73" y1="685.719" x2="1341.68" y2="686.695" stroke-width="8.64358" stroke="rgb(64,64,64)" />
	<line x1="1341.68" y1="686.695" x2="1390.07" y2="687.863" stroke-width="8.64358" stroke="rgb(64,64,64)" />
	<line x1="1390.07" y1="687.863" x2="1599.13" y2="687.129" stroke-width="8.64358" stroke="rgb(64,64,64)" />
	<line x1="1599.13" y1="687.129" x2="1629.06" y2="687.852" stroke-width="8.64358" stroke="rgb(64,64,64)" />
	<line x1="1629.06" y1="687.852" x2="1661.41" y2="707.789" stroke-width="8.64358" stroke="rgb(64,64,64)" />
	<line x1="1661.41" y1="707.789" x2="1670.12" y2="737.653" stroke-width="8.64358" stroke="rgb(64,64,64)" />
	<line x1="1670.12" y1="737.653" x2="1675.13" y2="1006.51" stroke-width="8.64358" stroke="rgb(64,64,64)" />
	<line x1="1675.13" y1="1006.51" x2="1680.2" y2="1281.66" stroke-width="8.64358" stroke="rgb(64,64,64)" />
	<line x1="1109.52" y1="20.5498" x2="1125.8" y2="34.5893" stroke-width="4.32179" stroke="rgb(0,255,255)" />
	<line x1="1323.42" y1="6.2899" x2="1337.64" y2="20.8048" stroke-width="4.32179" stroke="rgb(0,255,255)" />
	<line x1="320.278" y1="82.5799" x2="339.458" y2="69.9216" stroke-width="3.54478" stroke="rgb(0,255,255)" />
	<line x1="1128.5" y1="653.997" x2="1104.92" y2="678.885" stroke-width="4.32179" stroke="rgb(0,255,255)" />
	<line x1="1128.5" y1="653.997" x2="1159.73" y2="685.719" stroke-width="4.32179" stroke="rgb(0,255,255)" />
	<line x1="1127.07" y1="1665.64" x2="1106.24" y2="1695.32" stroke-width="4.32179" stroke="rgb(0,255,255)" />
	<line x1="1127.07" y1="1665.64" x2="1165.33" y2="1686.77" stroke-width="4.32179" stroke="rgb(0,255,255)" />
	<line x1="1129.95" y1="2439.1" x2="1109.44" y2="2455.67" stroke-width="4.32179" stroke="rgb(0,255,255)" />
	<line x1="1136.34" y1="1723.6" x2="1106.24" y2="1695.32" stroke-width="4.32179" stroke="rgb(0,255,255)" />
	<line x1="1136.34" y1="1723.6" x2="1165.33" y2="1686.77" stroke-width="4.32179" stroke="rgb(0,255,255)" />
	<line x1="1136.92" y1="704.588" x2="1104.92" y2="678.885" stroke-width="4.32179" stroke="rgb(0,255,255)" />
	<line x1="1136.92" y1="704.588" x2="1159.73" y2="685.719" stroke-width="4.32179" stroke="rgb(0,255,255)" />
	<line x1="1139.71" y1="27.839" x2="1152.05" y2="17.9016" stroke-width="4.32179" stroke="rgb(0,255,255)" />
	<line x1="1361.22" y1="659.087" x2="1341.67" y2="678.56" stroke-width="4.32179" stroke="rgb(0,255,255)" />
	<line x1="1361.22" y1="659.087" x2="1390.07" y2="687.863" stroke-width="4.32179" stroke="rgb(0,255,255)" />
	<line x1="1389.93" y1="1476.21" x2="1362.04" y2="1526.97" stroke-width="4.32179" stroke="rgb(0,255,255)" />
	<line x1="1389.93" y1="1476.21" x2="1434.73" y2="1481.49" stroke-width="4.32179" stroke="rgb(0,255,255)" />
	<line x1="1374.42" y1="707.168" x2="1341.67" y2="678.56" stroke-width="4.32179" stroke="rgb(0,255,255)" />
	<line x1="1374.42" y1="707.168" x2="1390.07" y2="687.863" stroke-width="4.32179" stroke="rgb(0,255,255)" />
	<line x1="381.001" y1="1695.39" x2="349.477" y2="1675.47" stroke-width="3.54478" stroke="rgb(0,255,255)" />
	<line x1="600.237" y1="1664.74" x2="577.307" y2="1696.72" stroke-width="4.32179" stroke="rgb(0,255,255)" />
	<line x1="691.686" y1="2321.19" x2="715.754" y2="2352.48" stroke-width="4.32179" stroke="rgb(0,255,255)" />
	<line x1="710.728" y1="2314.3" x2="767.102" y2="2316.19" stroke-width="4.32179" stroke="rgb(0,255,255)" />
	<line x1="865.867" y1="1734.92" x2="894.103" y2="1704.11" stroke-width="3.54478" stroke="rgb(0,255,255)" />
	<line x1="753.336" y1="1135.96" x2="721.253" y2="1130.72" stroke-width="3.54478" stroke="rgb(0,255,255)" />
	<line x1="753.336" y1="1135.96" x2="720.949" y2="1143.31" stroke-width="3.54478" stroke="rgb(0,255,255)" />
	<line x1="715.062" y1="2440.64" x2="746.992" y2="2460.83" stroke-width="3.54478" stroke="rgb(0,255,255)" />
	<line x1="745.723" y1="2351.89" x2="767.102" y2="2316.19" stroke-width="3.54478" stroke="rgb(0,255,255)" />
	<line x1="770.968" y1="2453.54" x2="745.164" y2="2434.54" stroke-width="4.32179" stroke="rgb(0,255,255)" />
	<line x1="1109.04" y1="2464.06" x2="1143.55" y2="2436.55" stroke-width="4.32179" stroke="rgb(0,255,255)" />
	<line x1="1435.71" y1="1466.55" x2="1402.1" y2="1456.29" stroke-width="4.32179" stroke="rgb(0,255,255)" />
	<line x1="1170.66" y1="1669.85" x2="1125.87" y2="1723.88" stroke-width="4.32179" stroke="rgb(0,255,255)" />
	<line x1="1170.66" y1="1669.85" x2="1137.44" y2="1660.91" stroke-width="4.32179" stroke="rgb(0,255,255)" />
	<line x1="894.996" y1="1692.59" x2="865.945" y2="1672.2" stroke-width="4.32179" stroke="rgb(0,255,255)" />
	<line x1="1110.08" y1="1706.44" x2="1125.87" y2="1723.88" stroke-width="4.32179" stroke="rgb(0,255,255)" />
	<line x1="1110.08" y1="1706.44" x2="1137.44" y2="1660.91" stroke-width="4.32179" stroke="rgb(0,255,255)" />
	<line x1="1369.66" y1="1533.98" x2="1402.1" y2="1456.29" stroke-width="4.32179" stroke="rgb(0,255,255)" />
	<line x1="1670.87" y1="1328.15" x2="1691.85" y2="1283.25" stroke-width="4.32179" stroke="rgb(0,255,255)" />
	<line x1="829.648" y1="1144.62" x2="798.978" y2="1148.87" stroke-width="3.60149" stroke="rgb(0,255,255)" />
	<line x1="897.107" y1="882.767" x2="897.064" y2="893.001" stroke-width="3.60149" stroke="rgb(0,255,255)" />
	<line x1="1389.91" y1="677.361" x2="1372.71" y2="659.101" stroke-width="4.32179" stroke="rgb(0,255,255)" />
	<line x1="1389.91" y1="677.361" x2="1363.14" y2="706.895" stroke-width="4.32179" stroke="rgb(0,255,255)" />
	<line x1="1158.7" y1="677.559" x2="1136.89" y2="654.987" stroke-width="4.32179" stroke="rgb(0,255,255)" />
	<line x1="1158.7" y1="677.559" x2="1128.5" y2="704.91" stroke-width="4.32179" stroke="rgb(0,255,255)" />
	<line x1="924.183" y1="678.984" x2="898.548" y2="704.083" stroke-width="4.32179" stroke="rgb(0,255,255)" />
	<line x1="1341.68" y1="686.695" x2="1363.14" y2="706.895" stroke-width="4.32179" stroke="rgb(0,255,255)" />
	<line x1="1341.68" y1="686.695" x2="1372.71" y2="659.101" stroke-width="4.32179" stroke="rgb(0,255,255)" />
	<line x1="1680.2" y1="1281.66" x2="1664.21" y2="1315.13" stroke-width="4.32179" stroke="rgb(0,255,255)" />
	<line x1="827.031" y1="972.664" x2="826.494" y2="977.9" stroke-width="3.54478" stroke="rgb(0,255,255)" />
	<line x1="897.064" y1="893.001" x2="827.031" y2="972.664" stroke-width="7.08955" stroke="rgb(64,64,64)" />
	<line x1="897.064" y1="893.001" x2="861.941" y2="920.233" stroke-width="7.08955" stroke="rgb(64,64,64)" />
	<line x1="897.064" y1="893.001" x2="875.276" y2="920.293" stroke-width="7.08955" stroke="rgb(64,64,64)" />
	<line x1="897.064" y1="893.001" x2="888.398" y2="920.609" stroke-width="7.08955" stroke="rgb(64,64,64)" />
	<line x1="897.064" y1="893.001" x2="902.955" y2="920.961" stroke-width="7.08955" stroke="rgb(64,64,64)" />
	<line x1="897.064" y1="893.001" x2="916.082" y2="921.015" stroke-width="7.08955" stroke="rgb(64,64,64)" />
	<line x1="897.064" y1="893.001" x2="928.999" y2="921.327" stroke-width="7.08955" stroke="rgb(64,64,64)" />
	<line x1="861.941" y1="920.233" x2="827.031" y2="972.664" stroke-width="11.5248" stroke="rgb(64,64,64)" />
	<line x1="875.276" y1="920.293" x2="827.031" y2="972.664" stroke-width="11.5248" stroke="rgb(64,64,64)" />
	<line x1="888.398" y1="920.609" x2="827.031" y2="972.664" stroke-width="11.5248" stroke="rgb(64,64,64)" />
	<line x1="902.955" y1="920.961" x2="827.031" y2="972.664" stroke-width="11.5248" stroke="rgb(64,64,64)" />
	<line x1="916.082" y1="921.015" x2="827.031" y2="972.664" stroke-width="11.5248" stroke="rgb(64,64,64)" />
	<line x1="928.999" y1="921.327" x2="827.031" y2="972.664" stroke-width="11.5248" stroke="rgb(64,64,64)" />
	<line x1="861.941" y1="920.233" x2="861.842" y2="932.828" stroke-width="11.5248" stroke="rgb(64,64,64)" />
	<line x1="861.842" y1="932.828" x2="861.941" y2="920.233" stroke-width="11.5248" stroke="rgb(64,64,64)" />
	<line x1="861.941" y1="920.233" x2="875.276" y2="920.293" stroke-width="11.5248" stroke="rgb(64,64,64)" />
	<line x1="875.276" y1="920.293" x2="861.941" y2="920.233" stroke-width="11.5248" stroke="rgb(64,64,64)" />
	<line x1="861.941" y1="920.233" x2="888.398" y2="920.609" stroke-width="11.5248" stroke="rgb(64,64,64)" />
	<line x1="888.398" y1="920.609" x2="861.941" y2="920.233" stroke-width="11.5248" stroke="rgb(64,64,64)" />
	<line x1="861.941" y1="920.233" x2="902.955" y2="920.961" stroke-width="11.5248" stroke="rgb(64,64,64)" />
	<line x1="902.955" y1="920.961" x2="861.941" y2="920.233" stroke-width="11.5248" stroke="rgb(64,64,64)" />
	<line x1="861.941" y1="920.233" x2="916.082" y2="921.015" stroke-width="11.5248" stroke="rgb(64,64,64)" />
	<line x1="916.082" y1="921.015" x2="861.941" y2="920.233" stroke-width="11.5248" stroke="rgb(64,64,64)" />
	<line x1="861.941" y1="920.233" x2="928.999" y2="921.327" stroke-width="11.5248" stroke="rgb(64,64,64)" />
	<line x1="928.999" y1="921.327" x2="861.941" y2="920.233" stroke-width="11.5248" stroke="rgb(64,64,64)" />
	<line x1="875.276" y1="920.293" x2="861.941" y2="920.233" stroke-width="11.5248" stroke="rgb(64,64,64)" />
	<line x1="861.941" y1="920.233" x2="875.276" y2="920.293" stroke-width="11.5248" stroke="rgb(64,64,64)" />
	<line x1="875.276" y1="920.293" x2="875.176" y2="932.886" stroke-width="11.5248" stroke="rgb(64,64,64)" />
	<line x1="875.176" y1="932.886" x2="875.276" y2="920.293" stroke-width="11.5248" stroke="rgb(64,64,64)" />
	<line x1="875.276" y1="920.293" x2="888.398" y2="920.609" stroke-width="11.5248" stroke="rgb(64,64,64)" />
	<line x1="888.398" y1="920.609" x2="875.276" y2="920.293" stroke-width="11.5248" stroke="rgb(64,64,64)" />
	<line x1="875.276" y1="920.293" x2="902.955" y2="920.961" stroke-width="11.5248" stroke="rgb(64,64,64)" />
	<line x1="902.955" y1="920.961" x2="875.276" y2="920.293" stroke-width="11.5248" stroke="rgb(64,64,64)" />
	<line x1="875.276" y1="920.293" x2="916.082" y2="921.015" stroke-width="11.5248" stroke="rgb(64,64,64)" />
	<line x1="916.082" y1="921.015" x2="875.276" y2="920.293" stroke-width="11.5248" stroke="rgb(64,64,64)" />
	<line x1="875.276" y1="920.293" x2="928.999" y2="921.327" stroke-width="11.5248" stroke="rgb(64,64,64)" />
	<line x1="928.999" y1="921.327" x2="875.276" y2="920.293" stroke-width="11.5248" stroke="rgb(64,64,64)" />
	<line x1="888.398" y1="920.609" x2="861.941" y2="920.233" stroke-width="11.5248" stroke="rgb(64,64,64)" />
	<line x1="861.941" y1="920.233" x2="888.398" y2="920.609" stroke-width="11.5248" stroke="rgb(64,64,64)" />
	<line x1="888.398" y1="920.609" x2="875.276" y2="920.293" stroke-width="11.5248" stroke="rgb(64,64,64)" />
	<line x1="875.276" y1="920.293" x2="888.398" y2="920.609" stroke-width="11.5248" stroke="rgb(64,64,64)" />
	<line x1="888.398" y1="920.609" x2="888.709" y2="933.213" stroke-width="11.5248" stroke="rgb(64,64,64)" />
	<line x1="888.709" y1="933.213" x2="888.398" y2="920.609" stroke-width="11.5248" stroke="rgb(64,64,64)" />
	<line x1="888.398" y1="920.609" x2="902.955" y2="920.961" stroke-width="11.5248" stroke="rgb(64,64,64)" />
	<line x1="902.955" y1="920.961" x2="888.398" y2="920.609" stroke-width="11.5248" stroke="rgb(64,64,64)" />
	<line x1="888.398" y1="920.609" x2="916.082" y2="921.015" stroke-width="11.5248" stroke="rgb(64,64,64)" />
	<line x1="916.082" y1="921.015" x2="888.398" y2="920.609" stroke-width="11.5248" stroke="rgb(64,64,64)" />
	<line x1="888.398" y1="920.609" x2="928.999" y2="921.327" stroke-width="11.5248" stroke="rgb(64,64,64)" />
	<line x1="928.999" y1="921.327" x2="888.398" y2="920.609" stroke-width="11.5248" stroke="rgb(64,64,64)" />
	<line x1="902.955" y1="920.961" x2="861.941" y2="920.233" stroke-width="11.5248" stroke="rgb(64,64,64)" />
	<line x1="861.941" y1="920.233" x2="902.955" y2="920.961" stroke-width="11.5248" stroke="rgb(64,64,64)" />
	<line x1="902.955" y1="920.961" x2="875.276" y2="920.293" stroke-width="11.5248" stroke="rgb(64,64,64)" />
	<line x1="875.276" y1="920.293" x2="902.955" y2="920.961" stroke-width="11.5248" stroke="rgb(64,64,64)" />
	<line x1="902.955" y1="920.961" x2="888.398" y2="920.609" stroke-width="11.5248" stroke="rgb(64,64,64)" />
	<line x1="888.398" y1="920.609" x2="902.955" y2="920.961" stroke-width="11.5248" stroke="rgb(64,64,64)" />
	<line x1="902.955" y1="920.961" x2="903.066" y2="933.297" stroke-width="11.5248" stroke="rgb(64,64,64)" />
	<line x1="903.066" y1="933.297" x2="902.955" y2="920.961" stroke-width="11.5248" stroke="rgb(64,64,64)" />
	<line x1="902.955" y1="920.961" x2="916.082" y2="921.015" stroke-width="11.5248" stroke="rgb(64,64,64)" />
	<line x1="916.082" y1="921.015" x2="902.955" y2="920.961" stroke-width="11.5248" stroke="rgb(64,64,64)" />
	<line x1="902.955" y1="920.961" x2="928.999" y2="921.327" stroke-width="11.5248" stroke="rgb(64,64,64)" />
	<line x1="928.999" y1="921.327" x2="902.955" y2="920.961" stroke-width="11.5248" stroke="rgb(64,64,64)" />
	<line x1="916.082" y1="921.015" x2="861.941" y2="920.233" stroke-width="11.5248" stroke="rgb(64,64,64)" />
	<line x1="861.941" y1="920.233" x2="916.082" y2="921.015" stroke-width="11.5248" stroke="rgb(64,64,64)" />
	<line x1="916.082" y1="921.015" x2="875.276" y2="920.293" stroke-width="11.5248" stroke="rgb(64,64,64)" />
	<line x1="875.276" y1="920.293" x2="916.082" y2="921.015" stroke-width="11.5248" stroke="rgb(64,64,64)" />
	<line x1="916.082" y1="921.015" x2="888.398" y2="920.609" stroke-width="11.5248" stroke="rgb(64,64,64)" />
	<line x1="888.398" y1="920.609" x2="916.082" y2="921.015" stroke-width="11.5248" stroke="rgb(64,64,64)" />
	<line x1="916.082" y1="921.015" x2="902.955" y2="920.961" stroke-width="11.5248" stroke="rgb(64,64,64)" />
	<line x1="902.955" y1="920.961" x2="916.082" y2="921.015" stroke-width="11.5248" stroke="rgb(64,64,64)" />
	<line x1="916.082" y1="921.015" x2="915.99" y2="933.347" stroke-width="11.5248" stroke="rgb(64,64,64)" />
	<line x1="915.99" y1="933.347" x2="916.082" y2="921.015" stroke-width="11.5248" stroke="rgb(64,64,64)" />
	<line x1="916.082" y1="921.015" x2="928.999" y2="921.327" stroke-width="11.5248" stroke="rgb(64,64,64)" />
	<line x1="928.999" y1="921.327" x2="916.082" y2="921.015" stroke-width="11.5248" stroke="rgb(64,64,64)" />
	<line x1="928.999" y1="921.327" x2="861.941" y2="920.233" stroke-width="11.5248" stroke="rgb(64,64,64)" />
	<line x1="861.941" y1="920.233" x2="928.999" y2="921.327" stroke-width="11.5248" stroke="rgb(64,64,64)" />
	<line x1="928.999" y1="921.327" x2="875.276" y2="920.293" stroke-width="11.5248" stroke="rgb(64,64,64)" />
	<line x1="875.276" y1="920.293" x2="928.999" y2="921.327" stroke-width="11.5248" stroke="rgb(64,64,64)" />
	<line x1="928.999" y1="921.327" x2="888.398" y2="920.609" stroke-width="11.5248" stroke="rgb(64,64,64)" />
	<line x1="888.398" y1="920.609" x2="928.999" y2="921.327" stroke-width="11.5248" stroke="rgb(64,64,64)" />
	<line x1="928.999" y1="921.327" x2="902.955" y2="920.961" stroke-width="11.5248" stroke="rgb(64,64,64)" />
	<line x1="902.955" y1="920.961" x2="928.999" y2="921.327" stroke-width="11.5248" stroke="rgb(64,64,64)" />
	<line x1="928.999" y1="921.327" x2="916.082" y2="921.015" stroke-width="11.5248" stroke="rgb(64,64,64)" />
	<line x1="916.082" y1="921.015" x2="928.999" y2="921.327" stroke-width="11.5248" stroke="rgb(64,64,64)" />
	<line x1="928.999" y1="921.327" x2="929.112" y2="933.664" stroke-width="11.5248" stroke="rgb(64,64,64)" />
	<line x1="929.112" y1="933.664" x2="928.999" y2="921.327" stroke-width="11.5248" stroke="rgb(64,64,64)" />
	<polygon points="469.378,53.6705 456.356,66.3219 455.742,56.4944 445.915,57.1076 445.67,53.1766 455.497,52.5634 454.884,42.7359 " fill="rgb(0,128,0)" />
	<polygon points="645.24,42.6431 632.277,55.3551 631.618,45.5306 621.793,46.1896 621.53,42.2598 631.354,41.6008 630.695,31.7763 " fill="rgb(0,128,0)" />
	<polygon points="973.18,20.6344 960.228,33.3583 959.56,23.5343 949.736,24.2023 949.469,20.2727 959.293,19.6048 958.625,9.78085 " fill="rgb(0,128,0)" />
	<polygon points="1223.86,3.59021 1210.91,16.314 1210.24,6.49011 1200.42,7.15804 1200.15,3.22848 1209.98,2.56054 1209.31,-7.26338 " fill="rgb(0,128,0)" />
	<polygon points="351.252,69.1995 338.215,81.8358 337.613,72.0076 327.785,72.6094 327.544,68.6782 337.372,68.0763 336.771,58.2482 " fill="rgb(0,0,255)" />
	<polygon points="643.185,51.2365 630.241,63.9684 629.567,54.145 619.744,54.8191 619.474,50.8897 629.297,50.2156 628.623,40.3921 " fill="rgb(0,128,0)" />
	<polygon points="897.784,33.8344 884.765,46.4903 884.149,36.663 874.321,37.2796 874.075,33.3487 883.902,32.7321 883.286,22.9048 " fill="rgb(0,128,0)" />
	<polygon points="1121.32,19.8154 1108.29,32.4652 1107.68,22.6377 1097.85,23.2496 1097.61,19.3186 1107.44,18.7067 1106.82,8.87909 " fill="rgb(255,0,0)" />
	<polygon points="1163.84,17.1028 1150.89,29.8236 1150.22,19.9995 1140.4,20.6652 1140.13,16.7356 1149.95,16.0699 1149.29,6.24583 " fill="rgb(0,0,255)" />
	<polygon points="1335.21,5.4911 1322.25,18.2119 1321.59,8.38785 1311.76,9.05351 1311.5,5.12389 1321.32,4.45822 1320.66,-5.36585 " fill="rgb(255,0,0)" />
	<polygon points="343.962,1665.02 360.846,1671.7 352.137,1676.3 356.733,1685 353.25,1686.84 348.654,1678.13 339.946,1682.73 " fill="rgb(0,0,255)" />
	<circle cx="12.6536" cy="1037.23" r="5.90796" fill="rgb(255,0,255)" />
	<polygon points="207.192,896.925 214.694,913.459 205.238,910.712 202.491,920.168 198.709,919.069 201.456,909.613 192,906.866 " fill="rgb(0,128,0)" />
	<polygon points="315.685,512.065 327.353,525.976 317.507,525.87 317.402,535.716 313.463,535.674 313.569,525.828 303.723,525.723 " fill="rgb(0,128,0)" />
	<polygon points="320.405,70.7646 332.073,84.6755 322.226,84.5702 322.121,94.4162 318.183,94.3741 318.288,84.528 308.442,84.4227 " fill="rgb(255,0,0)" />
	<polygon points="1125.87,46.405 1113.97,32.6859 1123.82,32.631 1123.77,22.7845 1127.7,22.7625 1127.76,32.609 1137.61,32.5541 " fill="rgb(0,0,255)" />
	<circle cx="1127.42" cy="324.617" r="5.90796" fill="rgb(255,0,255)" />
	<polygon points="1128.5,665.813 1116.68,652.028 1126.53,652.028 1126.53,642.181 1130.47,642.181 1130.47,652.028 1140.31,652.027 " fill="rgb(255,0,0)" />
	<polygon points="1128.48,716.725 1116.69,702.922 1126.53,702.937 1126.55,693.091 1130.49,693.097 1130.47,702.943 1140.32,702.958 " fill="rgb(0,0,255)" />
	<polygon points="1127.96,1043.71 1116.19,1029.89 1126.03,1029.91 1126.06,1020.07 1130,1020.08 1129.97,1029.93 1139.82,1029.95 " fill="rgb(0,128,0)" />
	<circle cx="1126.95" cy="1389.82" r="5.90796" fill="rgb(255,0,255)" />
	<polygon points="1126.82,1677.46 1115.3,1663.43 1125.14,1663.63 1125.34,1653.79 1129.28,1653.87 1129.08,1663.72 1138.92,1663.92 " fill="rgb(255,0,0)" />
	<polygon points="1125.91,1735.69 1114.05,1721.94 1123.89,1721.91 1123.86,1712.07 1127.8,1712.05 1127.83,1721.9 1137.68,1721.87 " fill="rgb(0,0,255)" />
	<polygon points="1131.13,1982.83 1114.97,1974.54 1124.09,1970.82 1120.36,1961.7 1124,1960.21 1127.73,1969.33 1136.85,1965.6 " fill="rgb(0,128,0)" />
	<polygon points="1154.47,2032.65 1136.83,2028.34 1144.83,2022.6 1139.09,2014.6 1142.28,2012.3 1148.03,2020.3 1156.03,2014.56 " fill="rgb(0,128,0)" />
	<polygon points="1172.99,2066.04 1158.26,2055.43 1167.83,2053.11 1165.51,2043.54 1169.33,2042.61 1171.66,2052.18 1181.23,2049.86 " fill="rgb(0,128,0)" />
	<polygon points="1175.05,2092.42 1165.08,2077.24 1174.85,2078.49 1176.1,2068.73 1180.01,2069.23 1178.76,2078.99 1188.52,2080.24 " fill="rgb(0,128,0)" />
	<polygon points="1151.75,2273.98 1141.84,2258.76 1151.6,2260.05 1152.89,2250.29 1156.79,2250.81 1155.51,2260.57 1165.27,2261.86 " fill="rgb(0,128,0)" />
	<polygon points="1128.4,2450.82 1118.49,2435.61 1128.26,2436.89 1129.54,2427.13 1133.45,2427.65 1132.16,2437.41 1141.92,2438.7 " fill="rgb(255,0,0)" />
	<polygon points="1145.11,2424.83 1155,2440.06 1145.24,2438.76 1143.94,2448.52 1140.04,2448 1141.34,2438.24 1131.58,2436.94 " fill="rgb(0,0,255)" />
	<polygon points="1168.72,2248.27 1178.53,2263.54 1168.78,2262.19 1167.43,2271.95 1163.53,2271.41 1164.88,2261.65 1155.12,2260.3 " fill="rgb(0,128,0)" />
	<polygon points="1186.86,2068.16 1203.63,2075.14 1194.84,2079.58 1199.28,2088.37 1195.76,2090.15 1191.32,2081.36 1182.53,2085.8 " fill="rgb(0,128,0)" />
	<polygon points="1159.98,2017.09 1177.26,2022.68 1168.86,2027.82 1173.99,2036.22 1170.63,2038.28 1165.5,2029.88 1157.1,2035.01 " fill="rgb(0,128,0)" />
	<polygon points="1135.4,1965.01 1147.17,1978.84 1137.32,1978.8 1137.28,1988.65 1133.34,1988.64 1133.38,1978.79 1123.53,1978.75 " fill="rgb(0,128,0)" />
	<polygon points="1136.55,1711.79 1148.12,1725.78 1138.27,1725.61 1138.1,1735.45 1134.16,1735.38 1134.33,1725.54 1124.49,1725.36 " fill="rgb(255,0,0)" />
	<polygon points="1137.43,1649.09 1149.26,1662.87 1139.41,1662.88 1139.42,1672.72 1135.48,1672.73 1135.47,1662.88 1125.63,1662.89 " fill="rgb(0,0,255)" />
	<circle cx="1137.08" cy="1310.03" r="5.90796" fill="rgb(255,0,255)" />
	<polygon points="1138.19,952.352 1150.07,966.076 1140.23,966.127 1140.28,975.973 1136.34,975.993 1136.29,966.147 1126.44,966.197 " fill="rgb(0,128,0)" />
	<polygon points="1136.91,692.772 1148.74,706.549 1138.89,706.556 1138.9,716.402 1134.96,716.405 1134.95,706.558 1125.11,706.565 " fill="rgb(255,0,0)" />
	<polygon points="1136.89,643.171 1148.7,656.96 1138.85,656.957 1138.85,666.804 1134.91,666.803 1134.92,656.956 1125.07,656.953 " fill="rgb(0,0,255)" />
	<polygon points="1137.13,272.618 1148.8,286.527 1138.95,286.424 1138.85,296.27 1134.91,296.228 1135.02,286.382 1125.17,286.278 " fill="rgb(0,128,0)" />
	<polygon points="1139.83,16.0237 1151.5,29.9327 1141.66,29.8289 1141.55,39.675 1137.62,39.6335 1137.72,29.7874 1127.87,29.6836 " fill="rgb(255,0,0)" />
	<polygon points="1338.3,32.6023 1325.73,19.4981 1335.56,18.9485 1335.01,9.11722 1338.94,8.89736 1339.49,18.7286 1349.32,18.1789 " fill="rgb(0,0,255)" />
	<polygon points="1346.74,188.974 1334.51,175.558 1344.35,175.256 1344.05,165.414 1347.98,165.293 1348.29,175.135 1358.13,174.833 " fill="rgb(0,128,0)" />
	<circle cx="1353.73" cy="416.68" r="5.90796" fill="rgb(255,0,255)" />
	<polygon points="1361.69,670.893 1349.33,657.595 1359.17,657.199 1358.78,647.36 1362.71,647.202 1363.11,657.04 1372.95,656.644 " fill="rgb(255,0,0)" />
	<polygon points="1363.57,718.704 1351.26,705.353 1361.1,704.998 1360.75,695.158 1364.69,695.016 1365.04,704.856 1374.88,704.502 " fill="rgb(0,0,255)" />
	<circle cx="1377.65" cy="1109.29" r="5.90796" fill="rgb(255,0,255)" />
	<polygon points="1390.33,1488.02 1378.06,1474.64 1387.9,1474.31 1387.57,1464.47 1391.5,1464.33 1391.83,1474.17 1401.67,1473.85 " fill="rgb(255,0,0)" />
	<polygon points="1401.66,1444.49 1413.99,1457.81 1404.15,1458.19 1404.52,1468.03 1400.58,1468.18 1400.21,1458.34 1390.37,1458.71 " fill="rgb(0,0,255)" />
	<circle cx="1390.06" cy="1138.99" r="5.90796" fill="rgb(255,0,255)" />
	<polygon points="1380.24,907.552 1392.45,920.988 1382.61,921.274 1382.9,931.116 1378.96,931.231 1378.68,921.388 1368.83,921.674 " fill="rgb(0,128,0)" />
	<polygon points="1374,695.359 1386.3,708.715 1376.46,709.066 1376.81,718.906 1372.87,719.046 1372.52,709.206 1362.68,709.556 " fill="rgb(255,0,0)" />
	<polygon points="1372.28,647.293 1384.59,660.64 1374.75,660.997 1375.1,670.838 1371.17,670.981 1370.81,661.141 1360.97,661.498 " fill="rgb(0,0,255)" />
	<polygon points="1358.34,260.386 1370.51,273.86 1360.67,274.115 1360.93,283.959 1356.99,284.061 1356.73,274.217 1346.89,274.472 " fill="rgb(0,128,0)" />
	<polygon points="1351.65,1.98982 1363.82,15.4645 1353.98,15.7194 1354.23,25.5627 1350.3,25.6647 1350.04,15.8214 1340.2,16.0764 " fill="rgb(0,128,0)" />
	<polygon points="565.491,1696.64 579.356,1684.92 579.289,1694.77 589.136,1694.84 589.109,1698.77 579.263,1698.71 579.196,1708.55 " fill="rgb(0,0,255)" />
	<polygon points="369.185,1695.31 383.05,1683.59 382.984,1693.44 392.83,1693.5 392.803,1697.44 382.957,1697.38 382.89,1707.22 " fill="rgb(255,0,0)" />
	<polygon points="709.632,1132.85 721.057,1118.74 722.835,1128.43 732.52,1126.65 733.231,1130.52 723.546,1132.3 725.324,1141.98 " fill="rgb(0,0,255)" />
	<polygon points="663.239,1145.83 668.613,1128.48 673.857,1136.82 682.191,1131.57 684.289,1134.91 675.955,1140.15 681.2,1148.48 " fill="rgb(0,128,0)" />
	<polygon points="632.44,1169.67 631.996,1151.51 639.627,1157.74 645.85,1150.11 648.902,1152.6 642.679,1160.23 650.309,1166.45 " fill="rgb(0,128,0)" />
	<polygon points="608.641,1208.21 599.169,1192.72 608.89,1194.28 610.456,1184.56 614.345,1185.19 612.778,1194.91 622.499,1196.48 " fill="rgb(0,128,0)" />
	<polygon points="605.062,1241.29 593.423,1227.36 603.269,1227.48 603.395,1217.64 607.333,1217.69 607.207,1227.53 617.053,1227.66 " fill="rgb(0,128,0)" />
	<polygon points="601.421,1529.88 589.727,1515.99 599.573,1516.08 599.659,1506.23 603.598,1506.27 603.511,1516.11 613.358,1516.2 " fill="rgb(0,128,0)" />
	<polygon points="600.185,1676.55 588.43,1662.71 598.276,1662.76 598.32,1652.91 602.258,1652.93 602.215,1662.78 612.062,1662.82 " fill="rgb(255,0,0)" />
	<polygon points="598.806,1987.77 587.071,1973.91 596.918,1973.97 596.976,1964.12 600.914,1964.15 600.856,1973.99 610.703,1974.05 " fill="rgb(0,128,0)" />
	<polygon points="599.435,2211.96 585.581,2200.23 595.303,2198.67 593.74,2188.94 597.629,2188.32 599.192,2198.04 608.914,2196.48 " fill="rgb(0,128,0)" />
	<polygon points="609.277,2247.2 592.198,2241.04 600.763,2236.18 595.905,2227.61 599.331,2225.67 604.189,2234.24 612.753,2229.38 " fill="rgb(0,128,0)" />
	<polygon points="626.6,2273.37 608.683,2270.43 616.218,2264.09 609.879,2256.55 612.892,2254.02 619.232,2261.55 626.766,2255.21 " fill="rgb(0,128,0)" />
	<polygon points="651.664,2297.19 633.765,2300.23 638.829,2291.79 630.384,2286.73 632.41,2283.35 640.854,2288.41 645.919,2279.97 " fill="rgb(0,128,0)" />
	<polygon points="701.819,2327.27 683.92,2330.31 688.984,2321.87 680.54,2316.8 682.565,2313.43 691.01,2318.49 696.074,2310.05 " fill="rgb(255,0,0)" />
	<polygon points="709.409,1145.85 720.332,1131.35 722.449,1140.96 732.065,1138.85 732.912,1142.69 723.295,1144.81 725.412,1154.43 " fill="rgb(0,0,255)" />
	<polygon points="665.461,1160.78 668.993,1142.97 675.08,1150.71 682.82,1144.63 685.255,1147.72 677.514,1153.81 683.601,1161.55 " fill="rgb(0,128,0)" />
	<polygon points="628.388,1195.1 625.576,1177.17 633.955,1182.34 639.128,1173.96 642.479,1176.03 637.306,1184.41 645.684,1189.58 " fill="rgb(0,128,0)" />
	<polygon points="615.882,1226.6 604.483,1212.46 614.325,1212.76 614.619,1202.92 618.556,1203.03 618.262,1212.88 628.104,1213.17 " fill="rgb(0,128,0)" />
	<polygon points="610.832,1406.5 599.054,1392.68 608.901,1392.71 608.928,1382.86 612.866,1382.88 612.839,1392.72 622.686,1392.75 " fill="rgb(0,128,0)" />
	<polygon points="610.04,1674.69 598.33,1660.82 608.177,1660.89 608.253,1651.05 612.191,1651.08 612.115,1660.92 621.961,1661 " fill="rgb(0,128,0)" />
	<polygon points="607.596,1999 595.821,1985.18 605.668,1985.21 605.698,1975.36 609.636,1975.37 609.607,1985.22 619.453,1985.25 " fill="rgb(0,128,0)" />
	<polygon points="609.059,2212.42 595.009,2200.92 604.703,2199.2 602.977,2189.5 606.855,2188.81 608.581,2198.5 618.275,2196.78 " fill="rgb(0,128,0)" />
	<polygon points="618.906,2244.47 601.752,2238.52 610.255,2233.55 605.29,2225.05 608.691,2223.07 613.656,2231.57 622.16,2226.6 " fill="rgb(0,128,0)" />
	<polygon points="634.673,2267.15 616.716,2264.47 624.158,2258.02 617.711,2250.58 620.688,2248 627.135,2255.44 634.577,2248.99 " fill="rgb(0,128,0)" />
	<polygon points="659.681,2290.8 641.716,2293.42 646.974,2285.1 638.649,2279.84 640.753,2276.51 649.078,2281.77 654.336,2273.45 " fill="rgb(0,128,0)" />
	<polygon points="695.56,2309.73 678.95,2317.06 681.794,2307.63 672.367,2304.79 673.504,2301.02 682.931,2303.86 685.775,2294.44 " fill="rgb(0,128,0)" />
	<polygon points="722.04,2317.72 705.43,2325.05 708.273,2315.62 698.846,2312.78 699.984,2309.01 709.411,2311.85 712.254,2302.42 " fill="rgb(255,0,0)" />
	<polygon points="777.53,2310.63 770.921,2327.54 766.291,2318.85 757.601,2323.48 755.749,2320.01 764.438,2315.38 759.807,2306.69 " fill="rgb(0,0,255)" />
	<polygon points="824.438,2281.02 824.069,2299.17 816.725,2292.61 810.166,2299.95 807.228,2297.33 813.787,2289.99 806.443,2283.43 " fill="rgb(0,128,0)" />
	<polygon points="848.956,2246.5 855.847,2263.29 846.498,2260.2 843.408,2269.55 839.668,2268.32 842.759,2258.97 833.41,2255.88 " fill="rgb(0,128,0)" />
	<polygon points="859.424,2203.73 870.965,2217.74 861.12,2217.55 860.925,2227.39 856.987,2227.31 857.182,2217.47 847.338,2217.27 " fill="rgb(0,128,0)" />
	<polygon points="863.996,1966.07 875.7,1979.95 865.854,1979.87 865.774,1989.72 861.836,1989.69 861.915,1979.84 852.069,1979.76 " fill="rgb(0,128,0)" />
	<polygon points="865.882,1723.11 877.68,1736.91 867.834,1736.89 867.821,1746.74 863.883,1746.74 863.895,1736.89 854.048,1736.88 " fill="rgb(255,0,0)" />
	<polygon points="866.029,1660.39 877.747,1674.26 867.901,1674.19 867.831,1684.03 863.892,1684 863.962,1674.16 854.116,1674.09 " fill="rgb(0,0,255)" />
	<circle cx="867.828" cy="1407.19" r="5.90796" fill="rgb(255,0,255)" />
	<polygon points="859.937,1222.07 876.705,1229.03 867.92,1233.48 872.368,1242.26 868.854,1244.04 864.406,1235.26 855.621,1239.7 " fill="rgb(0,128,0)" />
	<polygon points="826.885,1168.87 844.973,1167.3 839.236,1175.3 847.24,1181.04 844.945,1184.24 836.942,1178.5 831.206,1186.5 " fill="rgb(0,128,0)" />
	<polygon points="787.608,1145.65 804.089,1138.03 801.409,1147.51 810.883,1150.19 809.811,1153.98 800.337,1151.3 797.656,1160.77 " fill="rgb(0,0,255)" />
	<polygon points="741.967,1132.74 758.448,1125.12 755.767,1134.6 765.242,1137.28 764.17,1141.07 754.695,1138.39 752.015,1147.86 " fill="rgb(255,0,0)" />
	<polygon points="715.661,2364.29 703.954,2350.42 713.8,2350.49 713.877,2340.65 717.816,2340.68 717.739,2350.52 727.585,2350.6 " fill="rgb(0,0,255)" />
	<polygon points="714.969,2452.45 703.261,2438.58 713.108,2438.65 713.185,2428.81 717.124,2428.84 717.046,2438.69 726.893,2438.76 " fill="rgb(255,0,0)" />
	<polygon points="745.244,2422.73 756.967,2436.59 747.12,2436.52 747.054,2446.37 743.115,2446.34 743.182,2436.5 733.335,2436.43 " fill="rgb(0,0,255)" />
	<polygon points="745.803,2340.07 757.525,2353.94 747.679,2353.87 747.612,2363.72 743.674,2363.69 743.74,2353.85 733.894,2353.78 " fill="rgb(255,0,0)" />
	<polygon points="1097.63,2455.59 1111.49,2443.86 1111.42,2453.71 1121.27,2453.77 1121.25,2457.71 1111.4,2457.65 1111.34,2467.5 " fill="rgb(0,0,255)" />
	<polygon points="759.152,2453.46 773.012,2441.73 772.95,2451.58 782.796,2451.64 782.771,2455.58 772.925,2455.52 772.863,2465.36 " fill="rgb(255,0,0)" />
	<polygon points="758.808,2460.95 744.902,2472.63 745.003,2462.78 735.157,2462.68 735.197,2458.74 745.043,2458.84 745.144,2448.99 " fill="rgb(0,0,255)" />
	<circle cx="917.035" cy="2462.57" r="5.90796" fill="rgb(255,0,255)" />
	<polygon points="1120.85,2464.15 1106.98,2475.86 1107.05,2466.01 1097.21,2465.93 1097.24,2462 1107.08,2462.07 1107.16,2452.23 " fill="rgb(255,0,0)" />
	<polygon points="1653.55,1320.22 1660.89,1303.62 1665.14,1312.5 1674.02,1308.25 1675.72,1311.8 1666.84,1316.05 1671.08,1324.94 " fill="rgb(0,0,255)" />
	<polygon points="1594.06,1351.07 1598.24,1333.4 1604.04,1341.36 1611.99,1335.55 1614.31,1338.74 1606.36,1344.54 1612.16,1352.49 " fill="rgb(0,128,0)" />
	<polygon points="1426.57,1474.05 1429.74,1456.17 1435.98,1463.78 1443.6,1457.54 1446.09,1460.58 1438.48,1466.83 1444.72,1474.44 " fill="rgb(255,0,0)" />
	<polygon points="1352.57,1534.04 1356.55,1516.33 1362.44,1524.22 1370.33,1518.33 1372.68,1521.48 1364.79,1527.37 1370.68,1535.26 " fill="rgb(0,0,255)" />
	<polygon points="1159.68,1674.19 1168.15,1658.13 1171.77,1667.29 1180.93,1663.67 1182.38,1667.33 1173.22,1670.95 1176.84,1680.11 " fill="rgb(255,0,0)" />
	<polygon points="1094.43,1695.17 1108.37,1683.53 1108.24,1693.38 1118.09,1693.51 1118.03,1697.44 1108.19,1697.32 1108.06,1707.16 " fill="rgb(0,0,255)" />
	<polygon points="883.181,1692.43 897.118,1680.8 896.99,1690.64 906.836,1690.77 906.785,1694.71 896.94,1694.58 896.812,1704.43 " fill="rgb(255,0,0)" />
	<polygon points="905.918,1704.24 892.006,1715.91 892.112,1706.06 882.266,1705.95 882.309,1702.02 892.155,1702.12 892.261,1692.28 " fill="rgb(0,0,255)" />
	<polygon points="1121.21,1702.48 1112.19,1718.23 1108.89,1708.95 1099.61,1712.25 1098.29,1708.54 1107.56,1705.24 1104.26,1695.96 " fill="rgb(255,0,0)" />
	<polygon points="1174.8,1679.7 1170.83,1697.42 1164.94,1689.53 1157.05,1695.43 1154.69,1692.27 1162.58,1686.38 1156.68,1678.49 " fill="rgb(0,0,255)" />
	<polygon points="1378.86,1526.56 1375.55,1544.41 1369.37,1536.75 1361.7,1542.93 1359.23,1539.87 1366.89,1533.68 1360.71,1526.02 " fill="rgb(255,0,0)" />
	<polygon points="1444.19,1474.4 1440.24,1492.12 1434.34,1484.24 1426.46,1490.15 1424.1,1487 1431.98,1481.09 1426.07,1473.21 " fill="rgb(0,0,255)" />
	<polygon points="1542.87,1401.06 1538.22,1418.6 1532.63,1410.49 1524.52,1416.08 1522.29,1412.83 1530.4,1407.25 1524.82,1399.14 " fill="rgb(0,128,0)" />
	<polygon points="1613.11,1355.09 1605.61,1371.63 1601.45,1362.7 1592.52,1366.87 1590.86,1363.3 1599.78,1359.13 1595.62,1350.21 " fill="rgb(0,128,0)" />
	<polygon points="1681.58,1323.15 1674.08,1339.69 1669.92,1330.76 1661,1334.92 1659.33,1331.36 1668.26,1327.19 1664.09,1318.27 " fill="rgb(255,0,0)" />
	<polygon points="826.455,989.716 814.684,975.892 824.531,975.924 824.563,966.078 828.502,966.091 828.469,975.937 838.316,975.969 " fill="rgb(0,0,255)" />
	<polygon points="827.571,1048.69 814.341,1036.26 824.13,1035.2 823.071,1025.41 826.987,1024.98 828.046,1034.77 837.835,1033.71 " fill="rgb(0,128,0)" />
	<polygon points="832.606,1119.98 822.518,1104.89 832.294,1106.06 833.468,1096.28 837.378,1096.75 836.205,1106.53 845.981,1107.7 " fill="rgb(0,128,0)" />
	<polygon points="828.24,1156.35 818.151,1141.26 827.928,1142.43 829.101,1132.65 833.012,1133.12 831.838,1142.9 841.615,1144.07 " fill="rgb(255,0,0)" />
	<polygon points="898.452,715.899 886.748,702.019 896.594,702.098 896.674,692.252 900.612,692.284 900.533,702.13 910.379,702.209 " fill="rgb(0,0,255)" />
	<polygon points="897.012,894.582 885.308,880.702 895.154,880.782 895.233,870.935 899.172,870.967 899.093,880.813 908.939,880.893 " fill="rgb(255,0,0)" />
	<polygon points="1691.62,1271.44 1703.7,1284.99 1693.86,1285.18 1694.05,1295.03 1690.12,1295.1 1689.92,1285.26 1680.08,1285.45 " fill="rgb(0,0,255)" />
	<polygon points="1686.01,984.987 1698.09,998.542 1688.25,998.732 1688.44,1008.58 1684.5,1008.65 1684.31,998.808 1674.47,998.998 " fill="rgb(0,128,0)" />
	<polygon points="1677.82,720.803 1693.02,730.722 1683.57,733.483 1686.33,742.935 1682.55,744.039 1679.79,734.588 1670.34,737.348 " fill="rgb(0,128,0)" />
	<polygon points="1663.73,696.025 1681.88,695.797 1675.57,703.353 1683.12,709.666 1680.6,712.689 1673.04,706.375 1666.73,713.931 " fill="rgb(0,128,0)" />
	<polygon points="1637.15,682.034 1652.38,672.155 1651.07,681.914 1660.83,683.223 1660.31,687.126 1650.55,685.818 1649.24,695.577 " fill="rgb(0,128,0)" />
	<circle cx="1598.76" cy="676.886" r="5.90796" fill="rgb(255,0,255)" />
	<polygon points="1378.1,677.655 1391.58,665.5 1391.83,675.344 1401.67,675.099 1401.77,679.037 1391.93,679.281 1392.17,689.125 " fill="rgb(255,0,0)" />
	<polygon points="1329.85,678.496 1343.7,666.755 1343.65,676.602 1353.5,676.656 1353.47,680.594 1343.63,680.54 1343.57,690.387 " fill="rgb(0,0,255)" />
	<polygon points="1146.89,677.85 1160.38,665.698 1160.62,675.541 1170.46,675.299 1170.56,679.236 1160.72,679.479 1160.96,689.323 " fill="rgb(255,0,0)" />
	<polygon points="1093.1,678.891 1106.88,667.068 1106.89,676.914 1116.73,676.909 1116.74,680.847 1106.89,680.853 1106.9,690.699 " fill="rgb(0,0,255)" />
	<polygon points="912.367,678.99 926.145,667.167 926.151,677.013 935.997,677.008 936,680.947 926.153,680.952 926.158,690.799 " fill="rgb(255,0,0)" />
	<polygon points="1171.55,685.782 1157.7,697.524 1157.75,687.678 1147.91,687.625 1147.93,683.686 1157.78,683.739 1157.83,673.893 " fill="rgb(0,0,255)" />
	<polygon points="1353.49,686.98 1339.43,698.46 1339.66,688.617 1329.82,688.379 1329.91,684.441 1339.76,684.679 1340,674.835 " fill="rgb(255,0,0)" />
	<polygon points="1401.88,687.822 1388.14,699.686 1388.1,689.839 1378.26,689.874 1378.24,685.935 1388.09,685.901 1388.06,676.054 " fill="rgb(0,0,255)" />
	<polygon points="1610.94,687.414 1596.88,698.894 1597.11,689.05 1587.27,688.813 1587.36,684.875 1597.21,685.113 1597.45,675.269 " fill="rgb(0,128,0)" />
	<polygon points="1639.12,694.052 1621.19,696.877 1626.35,688.495 1617.97,683.328 1620.04,679.975 1628.42,685.142 1633.59,676.76 " fill="rgb(0,128,0)" />
	<polygon points="1664.72,719.131 1649.51,709.209 1658.97,706.45 1656.21,696.998 1659.99,695.894 1662.75,705.346 1672.2,702.587 " fill="rgb(0,128,0)" />
	<polygon points="1670.34,749.466 1658.27,735.904 1668.12,735.72 1667.94,725.875 1671.87,725.802 1672.06,735.647 1681.9,735.463 " fill="rgb(0,128,0)" />
	<circle cx="1675.13" cy="1006.51" r="5.90796" fill="rgb(255,0,255)" />
	<polygon points="1680.42,1293.47 1668.35,1279.91 1678.19,1279.72 1678.01,1269.88 1681.95,1269.81 1682.13,1279.65 1691.98,1279.47 " fill="rgb(255,0,0)" />
	<polygon points="861.848,932.048 850.141,918.17 859.988,918.248 860.065,908.402 864.004,908.433 863.926,918.279 873.772,918.357 " fill="rgb(0,128,0)" />
	<circle cx="861.842" cy="932.828" r="5.90796" fill="rgb(255,0,255)" />
	<polygon points="875.183,932.108 863.476,918.23 873.322,918.308 873.4,908.462 877.338,908.493 877.26,918.339 887.107,918.417 " fill="rgb(0,128,0)" />
	<circle cx="875.176" cy="932.886" r="5.90796" fill="rgb(255,0,255)" />
	<polygon points="888.69,932.421 876.537,918.932 886.38,918.689 886.137,908.845 890.075,908.748 890.318,918.592 900.161,918.348 " fill="rgb(0,128,0)" />
	<circle cx="888.709" cy="933.213" r="5.90796" fill="rgb(255,0,255)" />
	<polygon points="903.062,932.776 891.122,919.098 900.969,919.009 900.88,909.163 904.819,909.128 904.907,918.974 914.753,918.886 " fill="rgb(0,128,0)" />
	<circle cx="903.066" cy="933.297" r="5.90796" fill="rgb(255,0,255)" />
	<polygon points="915.994,932.831 904.281,918.957 914.128,919.031 914.201,909.185 918.14,909.214 918.066,919.061 927.912,919.134 " fill="rgb(0,128,0)" />
	<circle cx="915.99" cy="933.347" r="5.90796" fill="rgb(255,0,255)" />
	<polygon points="929.107,933.142 917.165,919.466 927.012,919.375 926.921,909.529 930.86,909.493 930.95,919.339 940.796,919.249 " fill="rgb(0,128,0)" />
	<circle cx="929.112" cy="933.664" r="5.90796" fill="rgb(255,0,255)" />
	<circle cx="787.455" cy="886.943" r="5.90796" fill="rgb(255,255,0)" />
	<polygon points="908.879,893.1 894.995,904.8 895.078,894.953 885.232,894.87 885.265,890.932 895.111,891.015 895.194,881.169 " fill="rgb(0,0,255)" />
	<circle cx="997.363" cy="893.847" r="5.90796" fill="rgb(255,255,0)" />
	<circle cx="996.664" cy="973.872" r="5.90796" fill="rgb(255,255,0)" />
	<polygon points="815.217,972.456 829.208,960.884 829.035,970.729 838.88,970.902 838.811,974.84 828.966,974.667 828.793,984.512 " fill="rgb(255,0,0)" />
	<circle cx="787.044" cy="971.961" r="5.90796" fill="rgb(255,255,0)" />
</svg>
