<?xml version="1.0" standalone="no" ?>
<!DOCTYPE svg PUBLIC "-//W3C//DTD SVG 1.1//EN" "http://www.w3.org/Graphics/SVG/1.1/DTD/svg11.dtd">
<svg width="1697px" height="2470px" xmlns="http://www.w3.org/2000/svg" version="1.1" >
	<polygon points="787.455,886.943 897.064,893.001 997.363,893.847 996.664,973.872 827.031,972.664 787.044,971.961 " fill="rgb(182,208,249)" stroke-width="4" stroke="rgb(182,208,249)" />
	<line x1="457.585" y1="54.4063" x2="633.451" y2="43.4339" stroke-width="4" stroke="rgb(64,64,64)" />
	<line x1="633.451" y1="43.4339" x2="961.391" y2="21.436" stroke-width="4" stroke="rgb(64,64,64)" />
	<line x1="961.391" y1="21.436" x2="1212.08" y2="4.39174" stroke-width="4" stroke="rgb(64,64,64)" />
	<line x1="339.458" y1="69.9216" x2="631.397" y2="52.0454" stroke-width="4" stroke="rgb(64,64,64)" />
	<line x1="631.397" y1="52.0454" x2="885.991" y2="34.5743" stroke-width="4" stroke="rgb(64,64,64)" />
	<line x1="885.991" y1="34.5743" x2="1109.52" y2="20.5498" stroke-width="4" stroke="rgb(64,64,64)" />
	<line x1="1109.52" y1="20.5498" x2="1152.05" y2="17.9016" stroke-width="4" stroke="rgb(0,255,255)" />
	<line x1="1152.05" y1="17.9016" x2="1323.42" y2="6.2899" stroke-width="4" stroke="rgb(0,255,255)" />
	<line x1="349.477" y1="1675.47" x2="12.6536" y2="1037.23" stroke-width="4" stroke="rgb(64,64,64)" />
	<line x1="12.6536" y1="1037.23" x2="203.896" y2="908.271" stroke-width="4" stroke="rgb(64,64,64)" />
	<line x1="203.896" y1="908.271" x2="315.559" y2="523.88" stroke-width="4" stroke="rgb(64,64,64)" />
	<line x1="315.559" y1="523.88" x2="320.278" y2="82.5799" stroke-width="4" stroke="rgb(64,64,64)" />
	<line x1="1125.8" y1="34.5893" x2="1127.42" y2="324.617" stroke-width="4" stroke="rgb(64,64,64)" />
	<line x1="1127.42" y1="324.617" x2="1128.5" y2="653.997" stroke-width="4" stroke="rgb(64,64,64)" />
	<line x1="1128.5" y1="653.997" x2="1128.5" y2="704.91" stroke-width="4" stroke="rgb(0,255,255)" />
	<line x1="1128.5" y1="704.91" x2="1128" y2="1031.89" stroke-width="4" stroke="rgb(64,64,64)" />
	<line x1="1128" y1="1031.89" x2="1126.95" y2="1389.82" stroke-width="4" stroke="rgb(64,64,64)" />
	<line x1="1126.95" y1="1389.82" x2="1127.07" y2="1665.64" stroke-width="4" stroke="rgb(64,64,64)" />
	<line x1="1127.07" y1="1665.64" x2="1125.87" y2="1723.88" stroke-width="4" stroke="rgb(0,255,255)" />
	<line x1="1125.87" y1="1723.88" x2="1126.65" y2="1971.89" stroke-width="4" stroke="rgb(64,64,64)" />
	<line x1="1126.65" y1="1971.89" x2="1147.58" y2="2023.05" stroke-width="4" stroke="rgb(64,64,64)" />
	<line x1="1147.58" y1="2023.05" x2="1170.21" y2="2054.56" stroke-width="4" stroke="rgb(64,64,64)" />
	<line x1="1170.21" y1="2054.56" x2="1176.55" y2="2080.7" stroke-width="4" stroke="rgb(64,64,64)" />
	<line x1="1176.55" y1="2080.7" x2="1153.3" y2="2262.26" stroke-width="4" stroke="rgb(64,64,64)" />
	<line x1="1153.3" y1="2262.26" x2="1129.95" y2="2439.1" stroke-width="4" stroke="rgb(64,64,64)" />
	<line x1="1143.55" y1="2436.55" x2="1167.1" y2="2259.97" stroke-width="4" stroke="rgb(64,64,64)" />
	<line x1="1167.1" y1="2259.97" x2="1192.19" y2="2078.71" stroke-width="4" stroke="rgb(64,64,64)" />
	<line x1="1192.19" y1="2078.71" x2="1166.15" y2="2027.17" stroke-width="4" stroke="rgb(64,64,64)" />
	<line x1="1166.15" y1="2027.17" x2="1135.36" y2="1976.83" stroke-width="4" stroke="rgb(64,64,64)" />
	<line x1="1135.36" y1="1976.83" x2="1136.34" y2="1723.6" stroke-width="4" stroke="rgb(64,64,64)" />
	<line x1="1136.34" y1="1723.6" x2="1137.44" y2="1660.91" stroke-width="4" stroke="rgb(0,255,255)" />
	<line x1="1137.44" y1="1660.91" x2="1137.08" y2="1310.03" stroke-width="4" stroke="rgb(64,64,64)" />
	<line x1="1137.08" y1="1310.03" x2="1138.25" y2="964.167" stroke-width="4" stroke="rgb(64,64,64)" />
	<line x1="1138.25" y1="964.167" x2="1136.92" y2="704.588" stroke-width="4" stroke="rgb(64,64,64)" />
	<line x1="1136.92" y1="704.588" x2="1136.89" y2="654.987" stroke-width="4" stroke="rgb(0,255,255)" />
	<line x1="1136.89" y1="654.987" x2="1137.01" y2="284.434" stroke-width="4" stroke="rgb(64,64,64)" />
	<line x1="1137.01" y1="284.434" x2="1139.71" y2="27.839" stroke-width="4" stroke="rgb(64,64,64)" />
	<line x1="1337.64" y1="20.8048" x2="1346.38" y2="177.164" stroke-width="4" stroke="rgb(64,64,64)" />
	<line x1="1346.38" y1="177.164" x2="1353.73" y2="416.68" stroke-width="4" stroke="rgb(64,64,64)" />
	<line x1="1353.73" y1="416.68" x2="1361.22" y2="659.087" stroke-width="4" stroke="rgb(64,64,64)" />
	<line x1="1361.22" y1="659.087" x2="1363.14" y2="706.895" stroke-width="4" stroke="rgb(0,255,255)" />
	<line x1="1363.14" y1="706.895" x2="1377.65" y2="1109.29" stroke-width="4" stroke="rgb(64,64,64)" />
	<line x1="1377.65" y1="1109.29" x2="1389.93" y2="1476.21" stroke-width="4" stroke="rgb(64,64,64)" />
	<line x1="1402.1" y1="1456.29" x2="1390.06" y2="1138.99" stroke-width="4" stroke="rgb(64,64,64)" />
	<line x1="1390.06" y1="1138.99" x2="1380.59" y2="919.363" stroke-width="4" stroke="rgb(64,64,64)" />
	<line x1="1380.59" y1="919.363" x2="1374.42" y2="707.168" stroke-width="4" stroke="rgb(64,64,64)" />
	<line x1="1374.42" y1="707.168" x2="1372.71" y2="659.101" stroke-width="4" stroke="rgb(0,255,255)" />
	<line x1="1372.71" y1="659.101" x2="1358.65" y2="272.198" stroke-width="4" stroke="rgb(64,64,64)" />
	<line x1="1358.65" y1="272.198" x2="1351.96" y2="13.8018" stroke-width="4" stroke="rgb(64,64,64)" />
	<line x1="577.307" y1="1696.72" x2="381.001" y2="1695.39" stroke-width="4" stroke="rgb(0,255,255)" />
	<line x1="721.253" y1="1130.72" x2="673.24" y2="1139.53" stroke-width="4" stroke="rgb(64,64,64)" />
	<line x1="673.24" y1="1139.53" x2="639.908" y2="1160.51" stroke-width="4" stroke="rgb(64,64,64)" />
	<line x1="639.908" y1="1160.51" x2="610.521" y2="1196.54" stroke-width="4" stroke="rgb(64,64,64)" />
	<line x1="610.521" y1="1196.54" x2="605.213" y2="1229.48" stroke-width="4" stroke="rgb(64,64,64)" />
	<line x1="605.213" y1="1229.48" x2="601.525" y2="1518.07" stroke-width="4" stroke="rgb(64,64,64)" />
	<line x1="601.525" y1="1518.07" x2="600.237" y2="1664.74" stroke-width="4" stroke="rgb(64,64,64)" />
	<line x1="600.237" y1="1664.74" x2="598.876" y2="1975.95" stroke-width="4" stroke="rgb(64,64,64)" />
	<line x1="598.876" y1="1975.95" x2="597.56" y2="2200.3" stroke-width="4" stroke="rgb(64,64,64)" />
	<line x1="597.56" y1="2200.3" x2="603.447" y2="2236.92" stroke-width="4" stroke="rgb(64,64,64)" />
	<line x1="603.447" y1="2236.92" x2="618.993" y2="2264.33" stroke-width="4" stroke="rgb(64,64,64)" />
	<line x1="618.993" y1="2264.33" x2="641.531" y2="2291.11" stroke-width="4" stroke="rgb(64,64,64)" />
	<line x1="641.531" y1="2291.11" x2="691.686" y2="2321.19" stroke-width="4" stroke="rgb(64,64,64)" />
	<line x1="720.949" y1="1143.31" x2="674.749" y2="1153.48" stroke-width="4" stroke="rgb(64,64,64)" />
	<line x1="674.749" y1="1153.48" x2="634.596" y2="1185.05" stroke-width="4" stroke="rgb(64,64,64)" />
	<line x1="634.596" y1="1185.05" x2="616.235" y2="1214.79" stroke-width="4" stroke="rgb(64,64,64)" />
	<line x1="616.235" y1="1214.79" x2="610.865" y2="1394.69" stroke-width="4" stroke="rgb(64,64,64)" />
	<line x1="610.865" y1="1394.69" x2="610.131" y2="1662.88" stroke-width="4" stroke="rgb(64,64,64)" />
	<line x1="610.131" y1="1662.88" x2="607.631" y2="1987.18" stroke-width="4" stroke="rgb(64,64,64)" />
	<line x1="607.631" y1="1987.18" x2="606.987" y2="2200.79" stroke-width="4" stroke="rgb(64,64,64)" />
	<line x1="606.987" y1="2200.79" x2="612.948" y2="2234.26" stroke-width="4" stroke="rgb(64,64,64)" />
	<line x1="612.948" y1="2234.26" x2="626.936" y2="2258.22" stroke-width="4" stroke="rgb(64,64,64)" />
	<line x1="626.936" y1="2258.22" x2="649.691" y2="2284.49" stroke-width="4" stroke="rgb(64,64,64)" />
	<line x1="649.691" y1="2284.49" x2="684.248" y2="2306.32" stroke-width="4" stroke="rgb(64,64,64)" />
	<line x1="684.248" y1="2306.32" x2="710.728" y2="2314.3" stroke-width="4" stroke="rgb(64,64,64)" />
	<line x1="767.102" y1="2316.19" x2="816.568" y2="2289.83" stroke-width="4" stroke="rgb(64,64,64)" />
	<line x1="816.568" y1="2289.83" x2="845.247" y2="2257.72" stroke-width="4" stroke="rgb(64,64,64)" />
	<line x1="845.247" y1="2257.72" x2="859.19" y2="2215.54" stroke-width="4" stroke="rgb(64,64,64)" />
	<line x1="859.19" y1="2215.54" x2="863.901" y2="1977.89" stroke-width="4" stroke="rgb(64,64,64)" />
	<line x1="863.901" y1="1977.89" x2="865.867" y2="1734.92" stroke-width="4" stroke="rgb(64,64,64)" />
	<line x1="865.867" y1="1734.92" x2="865.945" y2="1672.2" stroke-width="4" stroke="rgb(0,255,255)" />
	<line x1="865.945" y1="1672.2" x2="867.828" y2="1407.19" stroke-width="4" stroke="rgb(64,64,64)" />
	<line x1="867.828" y1="1407.19" x2="865.274" y2="1232.61" stroke-width="4" stroke="rgb(64,64,64)" />
	<line x1="865.274" y1="1232.61" x2="836.489" y2="1175.75" stroke-width="4" stroke="rgb(64,64,64)" />
	<line x1="836.489" y1="1175.75" x2="798.978" y2="1148.87" stroke-width="4" stroke="rgb(64,64,64)" />
	<line x1="798.978" y1="1148.87" x2="753.336" y2="1135.96" stroke-width="4" stroke="rgb(0,255,255)" />
	<line x1="715.754" y1="2352.48" x2="715.062" y2="2440.64" stroke-width="4" stroke="rgb(0,255,255)" />
	<line x1="745.164" y1="2434.54" x2="745.723" y2="2351.89" stroke-width="4" stroke="rgb(0,255,255)" />
	<line x1="1109.44" y1="2455.67" x2="770.968" y2="2453.54" stroke-width="4" stroke="rgb(0,255,255)" />
	<line x1="746.992" y1="2460.83" x2="917.035" y2="2462.57" stroke-width="4" stroke="rgb(64,64,64)" />
	<line x1="917.035" y1="2462.57" x2="1109.04" y2="2464.06" stroke-width="4" stroke="rgb(64,64,64)" />
	<line x1="1664.21" y1="1315.13" x2="1603.61" y2="1344.11" stroke-width="4" stroke="rgb(64,64,64)" />
	<line x1="1603.61" y1="1344.11" x2="1435.71" y2="1466.55" stroke-width="4" stroke="rgb(64,64,64)" />
	<line x1="1435.71" y1="1466.55" x2="1362.04" y2="1526.97" stroke-width="4" stroke="rgb(0,255,255)" />
	<line x1="1362.04" y1="1526.97" x2="1170.66" y2="1669.85" stroke-width="4" stroke="rgb(0,255,255)" />
	<line x1="1170.66" y1="1669.85" x2="1106.24" y2="1695.32" stroke-width="4" stroke="rgb(0,255,255)" />
	<line x1="1106.24" y1="1695.32" x2="894.996" y2="1692.59" stroke-width="4" stroke="rgb(0,255,255)" />
	<line x1="894.103" y1="1704.11" x2="1110.08" y2="1706.44" stroke-width="4" stroke="rgb(0,255,255)" />
	<line x1="1110.08" y1="1706.44" x2="1165.33" y2="1686.77" stroke-width="4" stroke="rgb(0,255,255)" />
	<line x1="1165.33" y1="1686.77" x2="1369.66" y2="1533.98" stroke-width="4" stroke="rgb(0,255,255)" />
	<line x1="1369.66" y1="1533.98" x2="1434.73" y2="1481.49" stroke-width="4" stroke="rgb(0,255,255)" />
	<line x1="1434.73" y1="1481.49" x2="1533.14" y2="1407.75" stroke-width="4" stroke="rgb(64,64,64)" />
	<line x1="1533.14" y1="1407.75" x2="1602.4" y2="1360.09" stroke-width="4" stroke="rgb(64,64,64)" />
	<line x1="1602.4" y1="1360.09" x2="1670.87" y2="1328.15" stroke-width="4" stroke="rgb(64,64,64)" />
	<line x1="826.494" y1="977.9" x2="826.3" y2="1036.94" stroke-width="4" stroke="rgb(64,64,64)" />
	<line x1="826.3" y1="1036.94" x2="834.015" y2="1108.25" stroke-width="4" stroke="rgb(64,64,64)" />
	<line x1="834.015" y1="1108.25" x2="829.648" y2="1144.62" stroke-width="4" stroke="rgb(64,64,64)" />
	<line x1="898.548" y1="704.083" x2="897.107" y2="882.767" stroke-width="4" stroke="rgb(0,255,255)" />
	<line x1="1691.85" y1="1283.25" x2="1686.24" y2="996.801" stroke-width="4" stroke="rgb(64,64,64)" />
	<line x1="1686.24" y1="996.801" x2="1681.13" y2="732.145" stroke-width="4" stroke="rgb(64,64,64)" />
	<line x1="1681.13" y1="732.145" x2="1672.79" y2="703.601" stroke-width="4" stroke="rgb(64,64,64)" />
	<line x1="1672.79" y1="703.601" x2="1648.86" y2="683.604" stroke-width="4" stroke="rgb(64,64,64)" />
	<line x1="1648.86" y1="683.604" x2="1598.76" y2="676.886" stroke-width="4" stroke="rgb(64,64,64)" />
	<line x1="1598.76" y1="676.886" x2="1389.91" y2="677.361" stroke-width="4" stroke="rgb(64,64,64)" />
	<line x1="1389.91" y1="677.361" x2="1341.67" y2="678.56" stroke-width="4" stroke="rgb(0,255,255)" />
	<line x1="1341.67" y1="678.56" x2="1158.7" y2="677.559" stroke-width="4" stroke="rgb(0,255,255)" />
	<line x1="1158.7" y1="677.559" x2="1104.92" y2="678.885" stroke-width="4" stroke="rgb(0,255,255)" />
	<line x1="1104.92" y1="678.885" x2="924.183" y2="678.984" stroke-width="4" stroke="rgb(0,255,255)" />
	<line x1="1159.73" y1="685.719" x2="1341.68" y2="686.695" stroke-width="4" stroke="rgb(0,255,255)" />
	<line x1="1341.68" y1="686.695" x2="1390.07" y2="687.863" stroke-width="4" stroke="rgb(0,255,255)" />
	<line x1="1390.07" y1="687.863" x2="1599.13" y2="687.129" stroke-width="4" stroke="rgb(64,64,64)" />
	<line x1="1599.13" y1="687.129" x2="1629.06" y2="687.852" stroke-width="4" stroke="rgb(64,64,64)" />
	<line x1="1629.06" y1="687.852" x2="1661.41" y2="707.789" stroke-width="4" stroke="rgb(64,64,64)" />
	<line x1="1661.41" y1="707.789" x2="1670.12" y2="737.653" stroke-width="4" stroke="rgb(64,64,64)" />
	<line x1="1670.12" y1="737.653" x2="1675.13" y2="1006.51" stroke-width="4" stroke="rgb(64,64,64)" />
	<line x1="1675.13" y1="1006.51" x2="1680.2" y2="1281.66" stroke-width="4" stroke="rgb(64,64,64)" />
	<line x1="1109.52" y1="20.5498" x2="1125.8" y2="34.5893" stroke-width="4" stroke="rgb(0,255,255)" />
	<line x1="1323.42" y1="6.2899" x2="1337.64" y2="20.8048" stroke-width="4" stroke="rgb(0,255,255)" />
	<line x1="320.278" y1="82.5799" x2="339.458" y2="69.9216" stroke-width="4" stroke="rgb(0,255,255)" />
	<line x1="1128.5" y1="653.997" x2="1104.92" y2="678.885" stroke-width="4" stroke="rgb(0,255,255)" />
	<line x1="1128.5" y1="653.997" x2="1159.73" y2="685.719" stroke-width="4" stroke="rgb(0,255,255)" />
	<line x1="1127.07" y1="1665.64" x2="1106.24" y2="1695.32" stroke-width="4" stroke="rgb(0,255,255)" />
	<line x1="1127.07" y1="1665.64" x2="1165.33" y2="1686.77" stroke-width="4" stroke="rgb(0,255,255)" />
	<line x1="1129.95" y1="2439.1" x2="1109.44" y2="2455.67" stroke-width="4" stroke="rgb(0,255,255)" />
	<line x1="1136.34" y1="1723.6" x2="1106.24" y2="1695.32" stroke-width="4" stroke="rgb(0,255,255)" />
	<line x1="1136.34" y1="1723.6" x2="1165.33" y2="1686.77" stroke-width="4" stroke="rgb(0,255,255)" />
	<line x1="1136.92" y1="704.588" x2="1104.92" y2="678.885" stroke-width="4" stroke="rgb(0,255,255)" />
	<line x1="1136.92" y1="704.588" x2="1159.73" y2="685.719" stroke-width="4" stroke="rgb(0,255,255)" />
	<line x1="1139.71" y1="27.839" x2="1152.05" y2="17.9016" stroke-width="4" stroke="rgb(0,255,255)" />
	<line x1="1361.22" y1="659.087" x2="1341.67" y2="678.56" stroke-width="4" stroke="rgb(0,255,255)" />
	<line x1="1361.22" y1="659.087" x2="1390.07" y2="687.863" stroke-width="4" stroke="rgb(0,255,255)" />
	<line x1="1389.93" y1="1476.21" x2="1362.04" y2="1526.97" stroke-width="4" stroke="rgb(0,255,255)" />
	<line x1="1389.93" y1="1476.21" x2="1434.73" y2="1481.49" stroke-width="4" stroke="rgb(0,255,255)" />
	<line x1="1374.42" y1="707.168" x2="1341.67" y2="678.56" stroke-width="4" stroke="rgb(0,255,255)" />
	<line x1="1374.42" y1="707.168" x2="1390.07" y2="687.863" stroke-width="4" stroke="rgb(0,255,255)" />
	<line x1="381.001" y1="1695.39" x2="349.477" y2="1675.47" stroke-width="4" stroke="rgb(0,255,255)" />
	<line x1="600.237" y1="1664.74" x2="577.307" y2="1696.72" stroke-width="4" stroke="rgb(0,255,255)" />
	<line x1="691.686" y1="2321.19" x2="715.754" y2="2352.48" stroke-width="4" stroke="rgb(0,255,255)" />
	<line x1="710.728" y1="2314.3" x2="767.102" y2="2316.19" stroke-width="4" stroke="rgb(0,255,255)" />
	<line x1="865.867" y1="1734.92" x2="894.103" y2="1704.11" stroke-width="4" stroke="rgb(0,255,255)" />
	<line x1="753.336" y1="1135.96" x2="721.253" y2="1130.72" stroke-width="4" stroke="rgb(0,255,255)" />
	<line x1="753.336" y1="1135.96" x2="720.949" y2="1143.31" stroke-width="4" stroke="rgb(0,255,255)" />
	<line x1="715.062" y1="2440.64" x2="746.992" y2="2460.83" stroke-width="4" stroke="rgb(0,255,255)" />
	<line x1="745.723" y1="2351.89" x2="767.102" y2="2316.19" stroke-width="4" stroke="rgb(0,255,255)" />
	<line x1="770.968" y1="2453.54" x2="745.164" y2="2434.54" stroke-width="4" stroke="rgb(0,255,255)" />
	<line x1="1109.04" y1="2464.06" x2="1143.55" y2="2436.55" stroke-width="4" stroke="rgb(0,255,255)" />
	<line x1="1435.71" y1="1466.55" x2="1402.1" y2="1456.29" stroke-width="4" stroke="rgb(0,255,255)" />
	<line x1="1170.66" y1="1669.85" x2="1125.87" y2="1723.88" stroke-width="4" stroke="rgb(0,255,255)" />
	<line x1="1170.66" y1="1669.85" x2="1137.44" y2="1660.91" stroke-width="4" stroke="rgb(0,255,255)" />
	<line x1="894.996" y1="1692.59" x2="865.945" y2="1672.2" stroke-width="4" stroke="rgb(0,255,255)" />
	<line x1="1110.08" y1="1706.44" x2="1125.87" y2="1723.88" stroke-width="4" stroke="rgb(0,255,255)" />
	<line x1="1110.08" y1="1706.44" x2="1137.44" y2="1660.91" stroke-width="4" stroke="rgb(0,255,255)" />
	<line x1="1369.66" y1="1533.98" x2="1402.1" y2="1456.29" stroke-width="4" stroke="rgb(0,255,255)" />
	<line x1="1670.87" y1="1328.15" x2="1691.85" y2="1283.25" stroke-width="4" stroke="rgb(0,255,255)" />
	<line x1="829.648" y1="1144.62" x2="798.978" y2="1148.87" stroke-width="4" stroke="rgb(0,255,255)" />
	<line x1="897.107" y1="882.767" x2="897.064" y2="893.001" stroke-width="4" stroke="rgb(0,255,255)" />
	<line x1="1389.91" y1="677.361" x2="1372.71" y2="659.101" stroke-width="4" stroke="rgb(0,255,255)" />
	<line x1="1389.91" y1="677.361" x2="1363.14" y2="706.895" stroke-width="4" stroke="rgb(0,255,255)" />
	<line x1="1158.7" y1="677.559" x2="1136.89" y2="654.987" stroke-width="4" stroke="rgb(0,255,255)" />
	<line x1="1158.7" y1="677.559" x2="1128.5" y2="704.91" stroke-width="4" stroke="rgb(0,255,255)" />
	<line x1="924.183" y1="678.984" x2="898.548" y2="704.083" stroke-width="4" stroke="rgb(0,255,255)" />
	<line x1="1341.68" y1="686.695" x2="1363.14" y2="706.895" stroke-width="4" stroke="rgb(0,255,255)" />
	<line x1="1341.68" y1="686.695" x2="1372.71" y2="659.101" stroke-width="4" stroke="rgb(0,255,255)" />
	<line x1="1680.2" y1="1281.66" x2="1664.21" y2="1315.13" stroke-width="4" stroke="rgb(0,255,255)" />
	<line x1="827.031" y1="972.664" x2="826.494" y2="977.9" stroke-width="4" stroke="rgb(0,255,255)" />
	<line x1="897.064" y1="893.001" x2="827.031" y2="972.664" stroke-width="4" stroke="rgb(0,255,255)" />
	<line x1="897.064" y1="893.001" x2="861.941" y2="920.233" stroke-width="4" stroke="rgb(64,64,64)" />
	<line x1="897.064" y1="893.001" x2="875.276" y2="920.293" stroke-width="4" stroke="rgb(64,64,64)" />
	<line x1="897.064" y1="893.001" x2="888.398" y2="920.609" stroke-width="4" stroke="rgb(64,64,64)" />
	<line x1="897.064" y1="893.001" x2="902.955" y2="920.961" stroke-width="4" stroke="rgb(64,64,64)" />
	<line x1="897.064" y1="893.001" x2="916.082" y2="921.015" stroke-width="4" stroke="rgb(64,64,64)" />
	<line x1="897.064" y1="893.001" x2="928.999" y2="921.327" stroke-width="4" stroke="rgb(64,64,64)" />
	<line x1="861.941" y1="920.233" x2="827.031" y2="972.664" stroke-width="4" stroke="rgb(64,64,64)" />
	<line x1="875.276" y1="920.293" x2="827.031" y2="972.664" stroke-width="4" stroke="rgb(64,64,64)" />
	<line x1="888.398" y1="920.609" x2="827.031" y2="972.664" stroke-width="4" stroke="rgb(64,64,64)" />
	<line x1="902.955" y1="920.961" x2="827.031" y2="972.664" stroke-width="4" stroke="rgb(64,64,64)" />
	<line x1="916.082" y1="921.015" x2="827.031" y2="972.664" stroke-width="4" stroke="rgb(64,64,64)" />
	<line x1="928.999" y1="921.327" x2="827.031" y2="972.664" stroke-width="4" stroke="rgb(64,64,64)" />
	<line x1="861.941" y1="920.233" x2="861.842" y2="932.828" stroke-width="4" stroke="rgb(64,64,64)" />
	<line x1="861.842" y1="932.828" x2="861.941" y2="920.233" stroke-width="4" stroke="rgb(64,64,64)" />
	<line x1="861.941" y1="920.233" x2="875.276" y2="920.293" stroke-width="4" stroke="rgb(64,64,64)" />
	<line x1="875.276" y1="920.293" x2="861.941" y2="920.233" stroke-width="4" stroke="rgb(64,64,64)" />
	<line x1="861.941" y1="920.233" x2="888.398" y2="920.609" stroke-width="4" stroke="rgb(64,64,64)" />
	<line x1="888.398" y1="920.609" x2="861.941" y2="920.233" stroke-width="4" stroke="rgb(64,64,64)" />
	<line x1="861.941" y1="920.233" x2="902.955" y2="920.961" stroke-width="4" stroke="rgb(64,64,64)" />
	<line x1="902.955" y1="920.961" x2="861.941" y2="920.233" stroke-width="4" stroke="rgb(64,64,64)" />
	<line x1="861.941" y1="920.233" x2="916.082" y2="921.015" stroke-width="4" stroke="rgb(64,64,64)" />
	<line x1="916.082" y1="921.015" x2="861.941" y2="920.233" stroke-width="4" stroke="rgb(64,64,64)" />
	<line x1="861.941" y1="920.233" x2="928.999" y2="921.327" stroke-width="4" stroke="rgb(64,64,64)" />
	<line x1="928.999" y1="921.327" x2="861.941" y2="920.233" stroke-width="4" stroke="rgb(64,64,64)" />
	<line x1="875.276" y1="920.293" x2="861.941" y2="920.233" stroke-width="4" stroke="rgb(64,64,64)" />
	<line x1="861.941" y1="920.233" x2="875.276" y2="920.293" stroke-width="4" stroke="rgb(64,64,64)" />
	<line x1="875.276" y1="920.293" x2="875.176" y2="932.886" stroke-width="4" stroke="rgb(64,64,64)" />
	<line x1="875.176" y1="932.886" x2="875.276" y2="920.293" stroke-width="4" stroke="rgb(64,64,64)" />
	<line x1="875.276" y1="920.293" x2="888.398" y2="920.609" stroke-width="4" stroke="rgb(64,64,64)" />
	<line x1="888.398" y1="920.609" x2="875.276" y2="920.293" stroke-width="4" stroke="rgb(64,64,64)" />
	<line x1="875.276" y1="920.293" x2="902.955" y2="920.961" stroke-width="4" stroke="rgb(64,64,64)" />
	<line x1="902.955" y1="920.961" x2="875.276" y2="920.293" stroke-width="4" stroke="rgb(64,64,64)" />
	<line x1="875.276" y1="920.293" x2="916.082" y2="921.015" stroke-width="4" stroke="rgb(64,64,64)" />
	<line x1="916.082" y1="921.015" x2="875.276" y2="920.293" stroke-width="4" stroke="rgb(64,64,64)" />
	<line x1="875.276" y1="920.293" x2="928.999" y2="921.327" stroke-width="4" stroke="rgb(64,64,64)" />
	<line x1="928.999" y1="921.327" x2="875.276" y2="920.293" stroke-width="4" stroke="rgb(64,64,64)" />
	<line x1="888.398" y1="920.609" x2="861.941" y2="920.233" stroke-width="4" stroke="rgb(64,64,64)" />
	<line x1="861.941" y1="920.233" x2="888.398" y2="920.609" stroke-width="4" stroke="rgb(64,64,64)" />
	<line x1="888.398" y1="920.609" x2="875.276" y2="920.293" stroke-width="4" stroke="rgb(64,64,64)" />
	<line x1="875.276" y1="920.293" x2="888.398" y2="920.609" stroke-width="4" stroke="rgb(64,64,64)" />
	<line x1="888.398" y1="920.609" x2="888.709" y2="933.213" stroke-width="4" stroke="rgb(64,64,64)" />
	<line x1="888.709" y1="933.213" x2="888.398" y2="920.609" stroke-width="4" stroke="rgb(64,64,64)" />
	<line x1="888.398" y1="920.609" x2="902.955" y2="920.961" stroke-width="4" stroke="rgb(64,64,64)" />
	<line x1="902.955" y1="920.961" x2="888.398" y2="920.609" stroke-width="4" stroke="rgb(64,64,64)" />
	<line x1="888.398" y1="920.609" x2="916.082" y2="921.015" stroke-width="4" stroke="rgb(64,64,64)" />
	<line x1="916.082" y1="921.015" x2="888.398" y2="920.609" stroke-width="4" stroke="rgb(64,64,64)" />
	<line x1="888.398" y1="920.609" x2="928.999" y2="921.327" stroke-width="4" stroke="rgb(64,64,64)" />
	<line x1="928.999" y1="921.327" x2="888.398" y2="920.609" stroke-width="4" stroke="rgb(64,64,64)" />
	<line x1="902.955" y1="920.961" x2="861.941" y2="920.233" stroke-width="4" stroke="rgb(64,64,64)" />
	<line x1="861.941" y1="920.233" x2="902.955" y2="920.961" stroke-width="4" stroke="rgb(64,64,64)" />
	<line x1="902.955" y1="920.961" x2="875.276" y2="920.293" stroke-width="4" stroke="rgb(64,64,64)" />
	<line x1="875.276" y1="920.293" x2="902.955" y2="920.961" stroke-width="4" stroke="rgb(64,64,64)" />
	<line x1="902.955" y1="920.961" x2="888.398" y2="920.609" stroke-width="4" stroke="rgb(64,64,64)" />
	<line x1="888.398" y1="920.609" x2="902.955" y2="920.961" stroke-width="4" stroke="rgb(64,64,64)" />
	<line x1="902.955" y1="920.961" x2="903.066" y2="933.297" stroke-width="4" stroke="rgb(64,64,64)" />
	<line x1="903.066" y1="933.297" x2="902.955" y2="920.961" stroke-width="4" stroke="rgb(64,64,64)" />
	<line x1="902.955" y1="920.961" x2="916.082" y2="921.015" stroke-width="4" stroke="rgb(64,64,64)" />
	<line x1="916.082" y1="921.015" x2="902.955" y2="920.961" stroke-width="4" stroke="rgb(64,64,64)" />
	<line x1="902.955" y1="920.961" x2="928.999" y2="921.327" stroke-width="4" stroke="rgb(64,64,64)" />
	<line x1="928.999" y1="921.327" x2="902.955" y2="920.961" stroke-width="4" stroke="rgb(64,64,64)" />
	<line x1="916.082" y1="921.015" x2="861.941" y2="920.233" stroke-width="4" stroke="rgb(64,64,64)" />
	<line x1="861.941" y1="920.233" x2="916.082" y2="921.015" stroke-width="4" stroke="rgb(64,64,64)" />
	<line x1="916.082" y1="921.015" x2="875.276" y2="920.293" stroke-width="4" stroke="rgb(64,64,64)" />
	<line x1="875.276" y1="920.293" x2="916.082" y2="921.015" stroke-width="4" stroke="rgb(64,64,64)" />
	<line x1="916.082" y1="921.015" x2="888.398" y2="920.609" stroke-width="4" stroke="rgb(64,64,64)" />
	<line x1="888.398" y1="920.609" x2="916.082" y2="921.015" stroke-width="4" stroke="rgb(64,64,64)" />
	<line x1="916.082" y1="921.015" x2="902.955" y2="920.961" stroke-width="4" stroke="rgb(64,64,64)" />
	<line x1="902.955" y1="920.961" x2="916.082" y2="921.015" stroke-width="4" stroke="rgb(64,64,64)" />
	<line x1="916.082" y1="921.015" x2="915.99" y2="933.347" stroke-width="4" stroke="rgb(64,64,64)" />
	<line x1="915.99" y1="933.347" x2="916.082" y2="921.015" stroke-width="4" stroke="rgb(64,64,64)" />
	<line x1="916.082" y1="921.015" x2="928.999" y2="921.327" stroke-width="4" stroke="rgb(64,64,64)" />
	<line x1="928.999" y1="921.327" x2="916.082" y2="921.015" stroke-width="4" stroke="rgb(64,64,64)" />
	<line x1="928.999" y1="921.327" x2="861.941" y2="920.233" stroke-width="4" stroke="rgb(64,64,64)" />
	<line x1="861.941" y1="920.233" x2="928.999" y2="921.327" stroke-width="4" stroke="rgb(64,64,64)" />
	<line x1="928.999" y1="921.327" x2="875.276" y2="920.293" stroke-width="4" stroke="rgb(64,64,64)" />
	<line x1="875.276" y1="920.293" x2="928.999" y2="921.327" stroke-width="4" stroke="rgb(64,64,64)" />
	<line x1="928.999" y1="921.327" x2="888.398" y2="920.609" stroke-width="4" stroke="rgb(64,64,64)" />
	<line x1="888.398" y1="920.609" x2="928.999" y2="921.327" stroke-width="4" stroke="rgb(64,64,64)" />
	<line x1="928.999" y1="921.327" x2="902.955" y2="920.961" stroke-width="4" stroke="rgb(64,64,64)" />
	<line x1="902.955" y1="920.961" x2="928.999" y2="921.327" stroke-width="4" stroke="rgb(64,64,64)" />
	<line x1="928.999" y1="921.327" x2="916.082" y2="921.015" stroke-width="4" stroke="rgb(64,64,64)" />
	<line x1="916.082" y1="921.015" x2="928.999" y2="921.327" stroke-width="4" stroke="rgb(64,64,64)" />
	<line x1="928.999" y1="921.327" x2="929.112" y2="933.664" stroke-width="4" stroke="rgb(64,64,64)" />
	<line x1="929.112" y1="933.664" x2="928.999" y2="921.327" stroke-width="4" stroke="rgb(64,64,64)" />
</svg>
