<?xml version="1.0" standalone="no" ?>
<!DOCTYPE svg PUBLIC "-//W3C//DTD SVG 1.1//EN" "http://www.w3.org/Graphics/SVG/1.1/DTD/svg11.dtd">
<svg width="1697px" height="2470px" xmlns="http://www.w3.org/2000/svg" version="1.1" >
	<polygon points="787.455,886.943 897.064,893.001 997.363,893.847 996.664,973.872 827.031,972.664 787.044,971.961 " fill="rgb(182,208,249)" stroke-width="4" stroke="rgb(182,208,249)" />
	<line x1="457.585" y1="54.4063" x2="633.451" y2="43.4339" stroke-width="8.64358" stroke="rgb(64,64,64)" />
	<line x1="633.451" y1="43.4339" x2="961.391" y2="21.436" stroke-width="8.64358" stroke="rgb(64,64,64)" />
	<line x1="961.391" y1="21.436" x2="1212.08" y2="4.39174" stroke-width="8.64358" stroke="rgb(64,64,64)" />
	<line x1="339.458" y1="69.9216" x2="631.397" y2="52.0454" stroke-width="8.64358" stroke="rgb(64,64,64)" />
	<line x1="631.397" y1="52.0454" x2="885.991" y2="34.5743" stroke-width="8.64358" stroke="rgb(64,64,64)" />
	<line x1="885.991" y1="34.5743" x2="1109.52" y2="20.5498" stroke-width="8.64358" stroke="rgb(64,64,64)" />
	<line x1="1109.52" y1="20.5498" x2="1152.05" y2="17.9016" stroke-width="8.64358" stroke="rgb(64,64,64)" />
	<line x1="1152.05" y1="17.9016" x2="1323.42" y2="6.2899" stroke-width="8.64358" stroke="rgb(64,64,64)" />
	<line x1="349.477" y1="1675.47" x2="12.6536" y2="1037.23" stroke-width="7.08955" stroke="rgb(64,64,64)" />
	<line x1="12.6536" y1="1037.23" x2="203.896" y2="908.271" stroke-width="7.08955" stroke="rgb(64,64,64)" />
	<line x1="203.896" y1="908.271" x2="315.559" y2="523.88" stroke-width="7.08955" stroke="rgb(64,64,64)" />
	<line x1="315.559" y1="523.88" x2="320.278" y2="82.5799" stroke-width="7.08955" stroke="rgb(64,64,64)" />
	<line x1="1125.8" y1="34.5893" x2="1127.42" y2="324.617" stroke-width="8.64358" stroke="rgb(64,64,64)" />
	<line x1="1127.42" y1="324.617" x2="1128.5" y2="653.997" stroke-width="8.64358" stroke="rgb(64,64,64)" />
	<line x1="1128.5" y1="653.997" x2="1128.5" y2="704.91" stroke-width="8.64358" stroke="rgb(64,64,64)" />
	<line x1="1128.5" y1="704.91" x2="1128" y2="1031.89" stroke-width="8.64358" stroke="rgb(64,64,64)" />
	<line x1="1128" y1="1031.89" x2="1126.95" y2="1389.82" stroke-width="8.64358" stroke="rgb(64,64,64)" />
	<line x1="1126.95" y1="1389.82" x2="1127.07" y2="1665.64" stroke-width="8.64358" stroke="rgb(64,64,64)" />
	<line x1="1127.07" y1="1665.64" x2="1125.87" y2="1723.88" stroke-width="8.64358" stroke="rgb(64,64,64)" />
	<line x1="1125.87" y1="1723.88" x2="1126.65" y2="1971.89" stroke-width="8.64358" stroke="rgb(64,64,64)" />
	<line x1="1126.65" y1="1971.89" x2="1147.58" y2="2023.05" stroke-width="8.64358" stroke="rgb(64,64,64)" />
	<line x1="1147.58" y1="2023.05" x2="1170.21" y2="2054.56" stroke-width="8.64358" stroke="rgb(64,64,64)" />
	<line x1="1170.21" y1="2054.56" x2="1176.55" y2="2080.7" stroke-width="8.64358" stroke="rgb(64,64,64)" />
	<line x1="1176.55" y1="2080.7" x2="1153.3" y2="2262.26" stroke-width="8.64358" stroke="rgb(64,64,64)" />
	<line x1="1153.3" y1="2262.26" x2="1129.95" y2="2439.1" stroke-width="8.64358" stroke="rgb(64,64,64)" />
	<line x1="1143.55" y1="2436.55" x2="1167.1" y2="2259.97" stroke-width="8.64358" stroke="rgb(64,64,64)" />
	<line x1="1167.1" y1="2259.97" x2="1192.19" y2="2078.71" stroke-width="8.64358" stroke="rgb(64,64,64)" />
	<line x1="1192.19" y1="2078.71" x2="1166.15" y2="2027.17" stroke-width="8.64358" stroke="rgb(64,64,64)" />
	<line x1="1166.15" y1="2027.17" x2="1135.36" y2="1976.83" stroke-width="8.64358" stroke="rgb(64,64,64)" />
	<line x1="1135.36" y1="1976.83" x2="1136.34" y2="1723.6" stroke-width="8.64358" stroke="rgb(64,64,64)" />
	<line x1="1136.34" y1="1723.6" x2="1137.44" y2="1660.91" stroke-width="8.64358" stroke="rgb(64,64,64)" />
	<line x1="1137.44" y1="1660.91" x2="1137.08" y2="1310.03" stroke-width="8.64358" stroke="rgb(64,64,64)" />
	<line x1="1137.08" y1="1310.03" x2="1138.25" y2="964.167" stroke-width="8.64358" stroke="rgb(64,64,64)" />
	<line x1="1138.25" y1="964.167" x2="1136.92" y2="704.588" stroke-width="8.64358" stroke="rgb(64,64,64)" />
	<line x1="1136.92" y1="704.588" x2="1136.89" y2="654.987" stroke-width="8.64358" stroke="rgb(64,64,64)" />
	<line x1="1136.89" y1="654.987" x2="1137.01" y2="284.434" stroke-width="8.64358" stroke="rgb(64,64,64)" />
	<line x1="1137.01" y1="284.434" x2="1139.71" y2="27.839" stroke-width="8.64358" stroke="rgb(64,64,64)" />
	<line x1="1337.64" y1="20.8048" x2="1346.38" y2="177.164" stroke-width="8.64358" stroke="rgb(64,64,64)" />
	<line x1="1346.38" y1="177.164" x2="1353.73" y2="416.68" stroke-width="8.64358" stroke="rgb(64,64,64)" />
	<line x1="1353.73" y1="416.68" x2="1361.22" y2="659.087" stroke-width="8.64358" stroke="rgb(64,64,64)" />
	<line x1="1361.22" y1="659.087" x2="1363.14" y2="706.895" stroke-width="8.64358" stroke="rgb(64,64,64)" />
	<line x1="1363.14" y1="706.895" x2="1377.65" y2="1109.29" stroke-width="8.64358" stroke="rgb(64,64,64)" />
	<line x1="1377.65" y1="1109.29" x2="1389.93" y2="1476.21" stroke-width="8.64358" stroke="rgb(64,64,64)" />
	<line x1="1402.1" y1="1456.29" x2="1390.06" y2="1138.99" stroke-width="8.64358" stroke="rgb(64,64,64)" />
	<line x1="1390.06" y1="1138.99" x2="1380.59" y2="919.363" stroke-width="8.64358" stroke="rgb(64,64,64)" />
	<line x1="1380.59" y1="919.363" x2="1374.42" y2="707.168" stroke-width="8.64358" stroke="rgb(64,64,64)" />
	<line x1="1374.42" y1="707.168" x2="1372.71" y2="659.101" stroke-width="8.64358" stroke="rgb(64,64,64)" />
	<line x1="1372.71" y1="659.101" x2="1358.65" y2="272.198" stroke-width="8.64358" stroke="rgb(64,64,64)" />
	<line x1="1358.65" y1="272.198" x2="1351.96" y2="13.8018" stroke-width="8.64358" stroke="rgb(64,64,64)" />
	<line x1="577.307" y1="1696.72" x2="381.001" y2="1695.39" stroke-width="7.08955" stroke="rgb(64,64,64)" />
	<line x1="721.253" y1="1130.72" x2="673.24" y2="1139.53" stroke-width="8.64358" stroke="rgb(64,64,64)" />
	<line x1="673.24" y1="1139.53" x2="639.908" y2="1160.51" stroke-width="8.64358" stroke="rgb(64,64,64)" />
	<line x1="639.908" y1="1160.51" x2="610.521" y2="1196.54" stroke-width="8.64358" stroke="rgb(64,64,64)" />
	<line x1="610.521" y1="1196.54" x2="605.213" y2="1229.48" stroke-width="8.64358" stroke="rgb(64,64,64)" />
	<line x1="605.213" y1="1229.48" x2="601.525" y2="1518.07" stroke-width="8.64358" stroke="rgb(64,64,64)" />
	<line x1="601.525" y1="1518.07" x2="600.237" y2="1664.74" stroke-width="8.64358" stroke="rgb(64,64,64)" />
	<line x1="600.237" y1="1664.74" x2="598.876" y2="1975.95" stroke-width="8.64358" stroke="rgb(64,64,64)" />
	<line x1="598.876" y1="1975.95" x2="597.56" y2="2200.3" stroke-width="8.64358" stroke="rgb(64,64,64)" />
	<line x1="597.56" y1="2200.3" x2="603.447" y2="2236.92" stroke-width="8.64358" stroke="rgb(64,64,64)" />
	<line x1="603.447" y1="2236.92" x2="618.993" y2="2264.33" stroke-width="8.64358" stroke="rgb(64,64,64)" />
	<line x1="618.993" y1="2264.33" x2="641.531" y2="2291.11" stroke-width="8.64358" stroke="rgb(64,64,64)" />
	<line x1="641.531" y1="2291.11" x2="691.686" y2="2321.19" stroke-width="8.64358" stroke="rgb(64,64,64)" />
	<line x1="720.949" y1="1143.31" x2="674.749" y2="1153.48" stroke-width="8.64358" stroke="rgb(64,64,64)" />
	<line x1="674.749" y1="1153.48" x2="634.596" y2="1185.05" stroke-width="8.64358" stroke="rgb(64,64,64)" />
	<line x1="634.596" y1="1185.05" x2="616.235" y2="1214.79" stroke-width="8.64358" stroke="rgb(64,64,64)" />
	<line x1="616.235" y1="1214.79" x2="610.865" y2="1394.69" stroke-width="8.64358" stroke="rgb(64,64,64)" />
	<line x1="610.865" y1="1394.69" x2="610.131" y2="1662.88" stroke-width="8.64358" stroke="rgb(64,64,64)" />
	<line x1="610.131" y1="1662.88" x2="607.631" y2="1987.18" stroke-width="8.64358" stroke="rgb(64,64,64)" />
	<line x1="607.631" y1="1987.18" x2="606.987" y2="2200.79" stroke-width="8.64358" stroke="rgb(64,64,64)" />
	<line x1="606.987" y1="2200.79" x2="612.948" y2="2234.26" stroke-width="8.64358" stroke="rgb(64,64,64)" />
	<line x1="612.948" y1="2234.26" x2="626.936" y2="2258.22" stroke-width="8.64358" stroke="rgb(64,64,64)" />
	<line x1="626.936" y1="2258.22" x2="649.691" y2="2284.49" stroke-width="8.64358" stroke="rgb(64,64,64)" />
	<line x1="649.691" y1="2284.49" x2="684.248" y2="2306.32" stroke-width="8.64358" stroke="rgb(64,64,64)" />
	<line x1="684.248" y1="2306.32" x2="710.728" y2="2314.3" stroke-width="8.64358" stroke="rgb(64,64,64)" />
	<line x1="767.102" y1="2316.19" x2="816.568" y2="2289.83" stroke-width="7.08955" stroke="rgb(64,64,64)" />
	<line x1="816.568" y1="2289.83" x2="845.247" y2="2257.72" stroke-width="7.08955" stroke="rgb(64,64,64)" />
	<line x1="845.247" y1="2257.72" x2="859.19" y2="2215.54" stroke-width="7.08955" stroke="rgb(64,64,64)" />
	<line x1="859.19" y1="2215.54" x2="863.901" y2="1977.89" stroke-width="7.08955" stroke="rgb(64,64,64)" />
	<line x1="863.901" y1="1977.89" x2="865.867" y2="1734.92" stroke-width="7.08955" stroke="rgb(64,64,64)" />
	<line x1="865.867" y1="1734.92" x2="865.945" y2="1672.2" stroke-width="7.08955" stroke="rgb(64,64,64)" />
	<line x1="865.945" y1="1672.2" x2="867.828" y2="1407.19" stroke-width="7.08955" stroke="rgb(64,64,64)" />
	<line x1="867.828" y1="1407.19" x2="865.274" y2="1232.61" stroke-width="7.08955" stroke="rgb(64,64,64)" />
	<line x1="865.274" y1="1232.61" x2="836.489" y2="1175.75" stroke-width="7.08955" stroke="rgb(64,64,64)" />
	<line x1="836.489" y1="1175.75" x2="798.978" y2="1148.87" stroke-width="7.08955" stroke="rgb(64,64,64)" />
	<line x1="798.978" y1="1148.87" x2="753.336" y2="1135.96" stroke-width="7.08955" stroke="rgb(64,64,64)" />
	<line x1="715.754" y1="2352.48" x2="715.062" y2="2440.64" stroke-width="7.08955" stroke="rgb(64,64,64)" />
	<line x1="745.164" y1="2434.54" x2="745.723" y2="2351.89" stroke-width="7.08955" stroke="rgb(64,64,64)" />
	<line x1="1109.44" y1="2455.67" x2="770.968" y2="2453.54" stroke-width="8.64358" stroke="rgb(64,64,64)" />
	<line x1="746.992" y1="2460.83" x2="917.035" y2="2462.57" stroke-width="8.64358" stroke="rgb(64,64,64)" />
	<line x1="917.035" y1="2462.57" x2="1109.04" y2="2464.06" stroke-width="8.64358" stroke="rgb(64,64,64)" />
	<line x1="1664.21" y1="1315.13" x2="1603.61" y2="1344.11" stroke-width="8.64358" stroke="rgb(64,64,64)" />
	<line x1="1603.61" y1="1344.11" x2="1435.71" y2="1466.55" stroke-width="8.64358" stroke="rgb(64,64,64)" />
	<line x1="1435.71" y1="1466.55" x2="1362.04" y2="1526.97" stroke-width="8.64358" stroke="rgb(64,64,64)" />
	<line x1="1362.04" y1="1526.97" x2="1170.66" y2="1669.85" stroke-width="8.64358" stroke="rgb(64,64,64)" />
	<line x1="1170.66" y1="1669.85" x2="1106.24" y2="1695.32" stroke-width="8.64358" stroke="rgb(64,64,64)" />
	<line x1="1106.24" y1="1695.32" x2="894.996" y2="1692.59" stroke-width="8.64358" stroke="rgb(64,64,64)" />
	<line x1="894.103" y1="1704.11" x2="1110.08" y2="1706.44" stroke-width="8.64358" stroke="rgb(64,64,64)" />
	<line x1="1110.08" y1="1706.44" x2="1165.33" y2="1686.77" stroke-width="8.64358" stroke="rgb(64,64,64)" />
	<line x1="1165.33" y1="1686.77" x2="1369.66" y2="1533.98" stroke-width="8.64358" stroke="rgb(64,64,64)" />
	<line x1="1369.66" y1="1533.98" x2="1434.73" y2="1481.49" stroke-width="8.64358" stroke="rgb(64,64,64)" />
	<line x1="1434.73" y1="1481.49" x2="1533.14" y2="1407.75" stroke-width="8.64358" stroke="rgb(64,64,64)" />
	<line x1="1533.14" y1="1407.75" x2="1602.4" y2="1360.09" stroke-width="8.64358" stroke="rgb(64,64,64)" />
	<line x1="1602.4" y1="1360.09" x2="1670.87" y2="1328.15" stroke-width="8.64358" stroke="rgb(64,64,64)" />
	<line x1="826.494" y1="977.9" x2="826.3" y2="1036.94" stroke-width="7.20298" stroke="rgb(64,64,64)" />
	<line x1="826.3" y1="1036.94" x2="834.015" y2="1108.25" stroke-width="7.20298" stroke="rgb(64,64,64)" />
	<line x1="834.015" y1="1108.25" x2="829.648" y2="1144.62" stroke-width="7.20298" stroke="rgb(64,64,64)" />
	<line x1="898.548" y1="704.083" x2="897.107" y2="882.767" stroke-width="7.20298" stroke="rgb(64,64,64)" />
	<line x1="1691.85" y1="1283.25" x2="1686.24" y2="996.801" stroke-width="8.64358" stroke="rgb(64,64,64)" />
	<line x1="1686.24" y1="996.801" x2="1681.13" y2="732.145" stroke-width="8.64358" stroke="rgb(64,64,64)" />
	<line x1="1681.13" y1="732.145" x2="1672.79" y2="703.601" stroke-width="8.64358" stroke="rgb(64,64,64)" />
	<line x1="1672.79" y1="703.601" x2="1648.86" y2="683.604" stroke-width="8.64358" stroke="rgb(64,64,64)" />
	<line x1="1648.86" y1="683.604" x2="1598.76" y2="676.886" stroke-width="8.64358" stroke="rgb(64,64,64)" />
	<line x1="1598.76" y1="676.886" x2="1389.91" y2="677.361" stroke-width="8.64358" stroke="rgb(64,64,64)" />
	<line x1="1389.91" y1="677.361" x2="1341.67" y2="678.56" stroke-width="8.64358" stroke="rgb(64,64,64)" />
	<line x1="1341.67" y1="678.56" x2="1158.7" y2="677.559" stroke-width="8.64358" stroke="rgb(64,64,64)" />
	<line x1="1158.7" y1="677.559" x2="1104.92" y2="678.885" stroke-width="8.64358" stroke="rgb(64,64,64)" />
	<line x1="1104.92" y1="678.885" x2="924.183" y2="678.984" stroke-width="8.64358" stroke="rgb(64,64,64)" />
	<line x1="1159.73" y1="685.719" x2="1341.68" y2="686.695" stroke-width="8.64358" stroke="rgb(64,64,64)" />
	<line x1="1341.68" y1="686.695" x2="1390.07" y2="687.863" stroke-width="8.64358" stroke="rgb(64,64,64)" />
	<line x1="1390.07" y1="687.863" x2="1599.13" y2="687.129" stroke-width="8.64358" stroke="rgb(64,64,64)" />
	<line x1="1599.13" y1="687.129" x2="1629.06" y2="687.852" stroke-width="8.64358" stroke="rgb(64,64,64)" />
	<line x1="1629.06" y1="687.852" x2="1661.41" y2="707.789" stroke-width="8.64358" stroke="rgb(64,64,64)" />
	<line x1="1661.41" y1="707.789" x2="1670.12" y2="737.653" stroke-width="8.64358" stroke="rgb(64,64,64)" />
	<line x1="1670.12" y1="737.653" x2="1675.13" y2="1006.51" stroke-width="8.64358" stroke="rgb(64,64,64)" />
	<line x1="1675.13" y1="1006.51" x2="1680.2" y2="1281.66" stroke-width="8.64358" stroke="rgb(64,64,64)" />
	<line x1="1109.52" y1="20.5498" x2="1125.8" y2="34.5893" stroke-width="4.32179" stroke="rgb(0,255,255)" />
	<line x1="1323.42" y1="6.2899" x2="1337.64" y2="20.8048" stroke-width="4.32179" stroke="rgb(0,255,255)" />
	<line x1="320.278" y1="82.5799" x2="339.458" y2="69.9216" stroke-width="3.54478" stroke="rgb(0,255,255)" />
	<line x1="1128.5" y1="653.997" x2="1104.92" y2="678.885" stroke-width="4.32179" stroke="rgb(0,255,255)" />
	<line x1="1128.5" y1="653.997" x2="1159.73" y2="685.719" stroke-width="4.32179" stroke="rgb(0,255,255)" />
	<line x1="1127.07" y1="1665.64" x2="1106.24" y2="1695.32" stroke-width="4.32179" stroke="rgb(0,255,255)" />
	<line x1="1127.07" y1="1665.64" x2="1165.33" y2="1686.77" stroke-width="4.32179" stroke="rgb(0,255,255)" />
	<line x1="1129.95" y1="2439.1" x2="1109.44" y2="2455.67" stroke-width="4.32179" stroke="rgb(0,255,255)" />
	<line x1="1136.34" y1="1723.6" x2="1106.24" y2="1695.32" stroke-width="4.32179" stroke="rgb(0,255,255)" />
	<line x1="1136.34" y1="1723.6" x2="1165.33" y2="1686.77" stroke-width="4.32179" stroke="rgb(0,255,255)" />
	<line x1="1136.92" y1="704.588" x2="1104.92" y2="678.885" stroke-width="4.32179" stroke="rgb(0,255,255)" />
	<line x1="1136.92" y1="704.588" x2="1159.73" y2="685.719" stroke-width="4.32179" stroke="rgb(0,255,255)" />
	<line x1="1139.71" y1="27.839" x2="1152.05" y2="17.9016" stroke-width="4.32179" stroke="rgb(0,255,255)" />
	<line x1="1361.22" y1="659.087" x2="1341.67" y2="678.56" stroke-width="4.32179" stroke="rgb(0,255,255)" />
	<line x1="1361.22" y1="659.087" x2="1390.07" y2="687.863" stroke-width="4.32179" stroke="rgb(0,255,255)" />
	<line x1="1389.93" y1="1476.21" x2="1362.04" y2="1526.97" stroke-width="4.32179" stroke="rgb(0,255,255)" />
	<line x1="1389.93" y1="1476.21" x2="1434.73" y2="1481.49" stroke-width="4.32179" stroke="rgb(0,255,255)" />
	<line x1="1374.42" y1="707.168" x2="1341.67" y2="678.56" stroke-width="4.32179" stroke="rgb(0,255,255)" />
	<line x1="1374.42" y1="707.168" x2="1390.07" y2="687.863" stroke-width="4.32179" stroke="rgb(0,255,255)" />
	<line x1="381.001" y1="1695.39" x2="349.477" y2="1675.47" stroke-width="3.54478" stroke="rgb(0,255,255)" />
	<line x1="600.237" y1="1664.74" x2="577.307" y2="1696.72" stroke-width="4.32179" stroke="rgb(0,255,255)" />
	<line x1="691.686" y1="2321.19" x2="715.754" y2="2352.48" stroke-width="4.32179" stroke="rgb(0,255,255)" />
	<line x1="710.728" y1="2314.3" x2="767.102" y2="2316.19" stroke-width="4.32179" stroke="rgb(0,255,255)" />
	<line x1="865.867" y1="1734.92" x2="894.103" y2="1704.11" stroke-width="3.54478" stroke="rgb(0,255,255)" />
	<line x1="753.336" y1="1135.96" x2="721.253" y2="1130.72" stroke-width="3.54478" stroke="rgb(0,255,255)" />
	<line x1="753.336" y1="1135.96" x2="720.949" y2="1143.31" stroke-width="3.54478" stroke="rgb(0,255,255)" />
	<line x1="715.062" y1="2440.64" x2="746.992" y2="2460.83" stroke-width="3.54478" stroke="rgb(0,255,255)" />
	<line x1="745.723" y1="2351.89" x2="767.102" y2="2316.19" stroke-width="3.54478" stroke="rgb(0,255,255)" />
	<line x1="770.968" y1="2453.54" x2="745.164" y2="2434.54" stroke-width="4.32179" stroke="rgb(0,255,255)" />
	<line x1="1109.04" y1="2464.06" x2="1143.55" y2="2436.55" stroke-width="4.32179" stroke="rgb(0,255,255)" />
	<line x1="1435.71" y1="1466.55" x2="1402.1" y2="1456.29" stroke-width="4.32179" stroke="rgb(0,255,255)" />
	<line x1="1170.66" y1="1669.85" x2="1125.87" y2="1723.88" stroke-width="4.32179" stroke="rgb(0,255,255)" />
	<line x1="1170.66" y1="1669.85" x2="1137.44" y2="1660.91" stroke-width="4.32179" stroke="rgb(0,255,255)" />
	<line x1="894.996" y1="1692.59" x2="865.945" y2="1672.2" stroke-width="4.32179" stroke="rgb(0,255,255)" />
	<line x1="1110.08" y1="1706.44" x2="1125.87" y2="1723.88" stroke-width="4.32179" stroke="rgb(0,255,255)" />
	<line x1="1110.08" y1="1706.44" x2="1137.44" y2="1660.91" stroke-width="4.32179" stroke="rgb(0,255,255)" />
	<line x1="1369.66" y1="1533.98" x2="1402.1" y2="1456.29" stroke-width="4.32179" stroke="rgb(0,255,255)" />
	<line x1="1670.87" y1="1328.15" x2="1691.85" y2="1283.25" stroke-width="4.32179" stroke="rgb(0,255,255)" />
	<line x1="829.648" y1="1144.62" x2="798.978" y2="1148.87" stroke-width="3.60149" stroke="rgb(0,255,255)" />
	<line x1="897.107" y1="882.767" x2="897.064" y2="893.001" stroke-width="3.60149" stroke="rgb(0,255,255)" />
	<line x1="1389.91" y1="677.361" x2="1372.71" y2="659.101" stroke-width="4.32179" stroke="rgb(0,255,255)" />
	<line x1="1389.91" y1="677.361" x2="1363.14" y2="706.895" stroke-width="4.32179" stroke="rgb(0,255,255)" />
	<line x1="1158.7" y1="677.559" x2="1136.89" y2="654.987" stroke-width="4.32179" stroke="rgb(0,255,255)" />
	<line x1="1158.7" y1="677.559" x2="1128.5" y2="704.91" stroke-width="4.32179" stroke="rgb(0,255,255)" />
	<line x1="924.183" y1="678.984" x2="898.548" y2="704.083" stroke-width="4.32179" stroke="rgb(0,255,255)" />
	<line x1="1341.68" y1="686.695" x2="1363.14" y2="706.895" stroke-width="4.32179" stroke="rgb(0,255,255)" />
	<line x1="1341.68" y1="686.695" x2="1372.71" y2="659.101" stroke-width="4.32179" stroke="rgb(0,255,255)" />
	<line x1="1680.2" y1="1281.66" x2="1664.21" y2="1315.13" stroke-width="4.32179" stroke="rgb(0,255,255)" />
	<line x1="827.031" y1="972.664" x2="826.494" y2="977.9" stroke-width="3.54478" stroke="rgb(0,255,255)" />
	<line x1="897.064" y1="893.001" x2="827.031" y2="972.664" stroke-width="7.08955" stroke="rgb(64,64,64)" />
	<line x1="897.064" y1="893.001" x2="861.941" y2="920.233" stroke-width="7.08955" stroke="rgb(64,64,64)" />
	<line x1="897.064" y1="893.001" x2="875.276" y2="920.293" stroke-width="7.08955" stroke="rgb(64,64,64)" />
	<line x1="897.064" y1="893.001" x2="888.398" y2="920.609" stroke-width="7.08955" stroke="rgb(64,64,64)" />
	<line x1="897.064" y1="893.001" x2="902.955" y2="920.961" stroke-width="7.08955" stroke="rgb(64,64,64)" />
	<line x1="897.064" y1="893.001" x2="916.082" y2="921.015" stroke-width="7.08955" stroke="rgb(64,64,64)" />
	<line x1="897.064" y1="893.001" x2="928.999" y2="921.327" stroke-width="7.08955" stroke="rgb(64,64,64)" />
	<line x1="861.941" y1="920.233" x2="827.031" y2="972.664" stroke-width="11.5248" stroke="rgb(64,64,64)" />
	<line x1="875.276" y1="920.293" x2="827.031" y2="972.664" stroke-width="11.5248" stroke="rgb(64,64,64)" />
	<line x1="888.398" y1="920.609" x2="827.031" y2="972.664" stroke-width="11.5248" stroke="rgb(64,64,64)" />
	<line x1="902.955" y1="920.961" x2="827.031" y2="972.664" stroke-width="11.5248" stroke="rgb(64,64,64)" />
	<line x1="916.082" y1="921.015" x2="827.031" y2="972.664" stroke-width="11.5248" stroke="rgb(64,64,64)" />
	<line x1="928.999" y1="921.327" x2="827.031" y2="972.664" stroke-width="11.5248" stroke="rgb(64,64,64)" />
	<line x1="861.941" y1="920.233" x2="861.842" y2="932.828" stroke-width="11.5248" stroke="rgb(64,64,64)" />
	<line x1="861.842" y1="932.828" x2="861.941" y2="920.233" stroke-width="11.5248" stroke="rgb(64,64,64)" />
	<line x1="861.941" y1="920.233" x2="875.276" y2="920.293" stroke-width="11.5248" stroke="rgb(64,64,64)" />
	<line x1="875.276" y1="920.293" x2="861.941" y2="920.233" stroke-width="11.5248" stroke="rgb(64,64,64)" />
	<line x1="861.941" y1="920.233" x2="888.398" y2="920.609" stroke-width="11.5248" stroke="rgb(64,64,64)" />
	<line x1="888.398" y1="920.609" x2="861.941" y2="920.233" stroke-width="11.5248" stroke="rgb(64,64,64)" />
	<line x1="861.941" y1="920.233" x2="902.955" y2="920.961" stroke-width="11.5248" stroke="rgb(64,64,64)" />
	<line x1="902.955" y1="920.961" x2="861.941" y2="920.233" stroke-width="11.5248" stroke="rgb(64,64,64)" />
	<line x1="861.941" y1="920.233" x2="916.082" y2="921.015" stroke-width="11.5248" stroke="rgb(64,64,64)" />
	<line x1="916.082" y1="921.015" x2="861.941" y2="920.233" stroke-width="11.5248" stroke="rgb(64,64,64)" />
	<line x1="861.941" y1="920.233" x2="928.999" y2="921.327" stroke-width="11.5248" stroke="rgb(64,64,64)" />
	<line x1="928.999" y1="921.327" x2="861.941" y2="920.233" stroke-width="11.5248" stroke="rgb(64,64,64)" />
	<line x1="875.276" y1="920.293" x2="861.941" y2="920.233" stroke-width="11.5248" stroke="rgb(64,64,64)" />
	<line x1="861.941" y1="920.233" x2="875.276" y2="920.293" stroke-width="11.5248" stroke="rgb(64,64,64)" />
	<line x1="875.276" y1="920.293" x2="875.176" y2="932.886" stroke-width="11.5248" stroke="rgb(64,64,64)" />
	<line x1="875.176" y1="932.886" x2="875.276" y2="920.293" stroke-width="11.5248" stroke="rgb(64,64,64)" />
	<line x1="875.276" y1="920.293" x2="888.398" y2="920.609" stroke-width="11.5248" stroke="rgb(64,64,64)" />
	<line x1="888.398" y1="920.609" x2="875.276" y2="920.293" stroke-width="11.5248" stroke="rgb(64,64,64)" />
	<line x1="875.276" y1="920.293" x2="902.955" y2="920.961" stroke-width="11.5248" stroke="rgb(64,64,64)" />
	<line x1="902.955" y1="920.961" x2="875.276" y2="920.293" stroke-width="11.5248" stroke="rgb(64,64,64)" />
	<line x1="875.276" y1="920.293" x2="916.082" y2="921.015" stroke-width="11.5248" stroke="rgb(64,64,64)" />
	<line x1="916.082" y1="921.015" x2="875.276" y2="920.293" stroke-width="11.5248" stroke="rgb(64,64,64)" />
	<line x1="875.276" y1="920.293" x2="928.999" y2="921.327" stroke-width="11.5248" stroke="rgb(64,64,64)" />
	<line x1="928.999" y1="921.327" x2="875.276" y2="920.293" stroke-width="11.5248" stroke="rgb(64,64,64)" />
	<line x1="888.398" y1="920.609" x2="861.941" y2="920.233" stroke-width="11.5248" stroke="rgb(64,64,64)" />
	<line x1="861.941" y1="920.233" x2="888.398" y2="920.609" stroke-width="11.5248" stroke="rgb(64,64,64)" />
	<line x1="888.398" y1="920.609" x2="875.276" y2="920.293" stroke-width="11.5248" stroke="rgb(64,64,64)" />
	<line x1="875.276" y1="920.293" x2="888.398" y2="920.609" stroke-width="11.5248" stroke="rgb(64,64,64)" />
	<line x1="888.398" y1="920.609" x2="888.709" y2="933.213" stroke-width="11.5248" stroke="rgb(64,64,64)" />
	<line x1="888.709" y1="933.213" x2="888.398" y2="920.609" stroke-width="11.5248" stroke="rgb(64,64,64)" />
	<line x1="888.398" y1="920.609" x2="902.955" y2="920.961" stroke-width="11.5248" stroke="rgb(64,64,64)" />
	<line x1="902.955" y1="920.961" x2="888.398" y2="920.609" stroke-width="11.5248" stroke="rgb(64,64,64)" />
	<line x1="888.398" y1="920.609" x2="916.082" y2="921.015" stroke-width="11.5248" stroke="rgb(64,64,64)" />
	<line x1="916.082" y1="921.015" x2="888.398" y2="920.609" stroke-width="11.5248" stroke="rgb(64,64,64)" />
	<line x1="888.398" y1="920.609" x2="928.999" y2="921.327" stroke-width="11.5248" stroke="rgb(64,64,64)" />
	<line x1="928.999" y1="921.327" x2="888.398" y2="920.609" stroke-width="11.5248" stroke="rgb(64,64,64)" />
	<line x1="902.955" y1="920.961" x2="861.941" y2="920.233" stroke-width="11.5248" stroke="rgb(64,64,64)" />
	<line x1="861.941" y1="920.233" x2="902.955" y2="920.961" stroke-width="11.5248" stroke="rgb(64,64,64)" />
	<line x1="902.955" y1="920.961" x2="875.276" y2="920.293" stroke-width="11.5248" stroke="rgb(64,64,64)" />
	<line x1="875.276" y1="920.293" x2="902.955" y2="920.961" stroke-width="11.5248" stroke="rgb(64,64,64)" />
	<line x1="902.955" y1="920.961" x2="888.398" y2="920.609" stroke-width="11.5248" stroke="rgb(64,64,64)" />
	<line x1="888.398" y1="920.609" x2="902.955" y2="920.961" stroke-width="11.5248" stroke="rgb(64,64,64)" />
	<line x1="902.955" y1="920.961" x2="903.066" y2="933.297" stroke-width="11.5248" stroke="rgb(64,64,64)" />
	<line x1="903.066" y1="933.297" x2="902.955" y2="920.961" stroke-width="11.5248" stroke="rgb(64,64,64)" />
	<line x1="902.955" y1="920.961" x2="916.082" y2="921.015" stroke-width="11.5248" stroke="rgb(64,64,64)" />
	<line x1="916.082" y1="921.015" x2="902.955" y2="920.961" stroke-width="11.5248" stroke="rgb(64,64,64)" />
	<line x1="902.955" y1="920.961" x2="928.999" y2="921.327" stroke-width="11.5248" stroke="rgb(64,64,64)" />
	<line x1="928.999" y1="921.327" x2="902.955" y2="920.961" stroke-width="11.5248" stroke="rgb(64,64,64)" />
	<line x1="916.082" y1="921.015" x2="861.941" y2="920.233" stroke-width="11.5248" stroke="rgb(64,64,64)" />
	<line x1="861.941" y1="920.233" x2="916.082" y2="921.015" stroke-width="11.5248" stroke="rgb(64,64,64)" />
	<line x1="916.082" y1="921.015" x2="875.276" y2="920.293" stroke-width="11.5248" stroke="rgb(64,64,64)" />
	<line x1="875.276" y1="920.293" x2="916.082" y2="921.015" stroke-width="11.5248" stroke="rgb(64,64,64)" />
	<line x1="916.082" y1="921.015" x2="888.398" y2="920.609" stroke-width="11.5248" stroke="rgb(64,64,64)" />
	<line x1="888.398" y1="920.609" x2="916.082" y2="921.015" stroke-width="11.5248" stroke="rgb(64,64,64)" />
	<line x1="916.082" y1="921.015" x2="902.955" y2="920.961" stroke-width="11.5248" stroke="rgb(64,64,64)" />
	<line x1="902.955" y1="920.961" x2="916.082" y2="921.015" stroke-width="11.5248" stroke="rgb(64,64,64)" />
	<line x1="916.082" y1="921.015" x2="915.99" y2="933.347" stroke-width="11.5248" stroke="rgb(64,64,64)" />
	<line x1="915.99" y1="933.347" x2="916.082" y2="921.015" stroke-width="11.5248" stroke="rgb(64,64,64)" />
	<line x1="916.082" y1="921.015" x2="928.999" y2="921.327" stroke-width="11.5248" stroke="rgb(64,64,64)" />
	<line x1="928.999" y1="921.327" x2="916.082" y2="921.015" stroke-width="11.5248" stroke="rgb(64,64,64)" />
	<line x1="928.999" y1="921.327" x2="861.941" y2="920.233" stroke-width="11.5248" stroke="rgb(64,64,64)" />
	<line x1="861.941" y1="920.233" x2="928.999" y2="921.327" stroke-width="11.5248" stroke="rgb(64,64,64)" />
	<line x1="928.999" y1="921.327" x2="875.276" y2="920.293" stroke-width="11.5248" stroke="rgb(64,64,64)" />
	<line x1="875.276" y1="920.293" x2="928.999" y2="921.327" stroke-width="11.5248" stroke="rgb(64,64,64)" />
	<line x1="928.999" y1="921.327" x2="888.398" y2="920.609" stroke-width="11.5248" stroke="rgb(64,64,64)" />
	<line x1="888.398" y1="920.609" x2="928.999" y2="921.327" stroke-width="11.5248" stroke="rgb(64,64,64)" />
	<line x1="928.999" y1="921.327" x2="902.955" y2="920.961" stroke-width="11.5248" stroke="rgb(64,64,64)" />
	<line x1="902.955" y1="920.961" x2="928.999" y2="921.327" stroke-width="11.5248" stroke="rgb(64,64,64)" />
	<line x1="928.999" y1="921.327" x2="916.082" y2="921.015" stroke-width="11.5248" stroke="rgb(64,64,64)" />
	<line x1="916.082" y1="921.015" x2="928.999" y2="921.327" stroke-width="11.5248" stroke="rgb(64,64,64)" />
	<line x1="928.999" y1="921.327" x2="929.112" y2="933.664" stroke-width="11.5248" stroke="rgb(64,64,64)" />
	<line x1="929.112" y1="933.664" x2="928.999" y2="921.327" stroke-width="11.5248" stroke="rgb(64,64,64)" />
	<polygon points="469.378,53.6705 456.356,66.3219 455.742,56.4944 445.915,57.1076 445.67,53.1766 455.497,52.5634 454.884,42.7359 " fill="rgb(0,128,0)" />
	<polygon points="645.24,42.6431 632.277,55.3551 631.618,45.5306 621.793,46.1896 621.53,42.2598 631.354,41.6008 630.695,31.7763 " fill="rgb(0,128,0)" />
	<polygon points="973.18,20.6344 960.228,33.3583 959.56,23.5343 949.736,24.2023 949.469,20.2727 959.293,19.6048 958.625,9.78085 " fill="rgb(0,128,0)" />
	<polygon points="1223.86,3.59021 1210.91,16.314 1210.24,6.49011 1200.42,7.15804 1200.15,3.22848 1209.98,2.56054 1209.31,-7.26338 " fill="rgb(0,128,0)" />
	<circle cx="339.458" cy="69.9216" r="5.90796" fill="rgb(0,0,255)" />
	<polygon points="643.185,51.2365 630.241,63.9684 629.567,54.145 619.744,54.8191 619.474,50.8897 629.297,50.2156 628.623,40.3921 " fill="rgb(0,128,0)" />
	<polygon points="897.784,33.8344 884.765,46.4903 884.149,36.663 874.321,37.2796 874.075,33.3487 883.902,32.7321 883.286,22.9048 " fill="rgb(0,128,0)" />
	<circle cx="1109.52" cy="20.5498" r="5.90796" fill="rgb(255,0,0)" />
	<circle cx="1152.05" cy="17.9016" r="5.90796" fill="rgb(0,0,255)" />
	<circle cx="1323.42" cy="6.2899" r="5.90796" fill="rgb(255,0,0)" />
	<circle cx="349.477" cy="1675.47" r="5.90796" fill="rgb(0,0,255)" />
	<circle cx="12.6536" cy="1037.23" r="5.90796" fill="rgb(255,0,255)" />
	<polygon points="207.192,896.925 214.694,913.459 205.238,910.712 202.491,920.168 198.709,919.069 201.456,909.613 192,906.866 " fill="rgb(0,128,0)" />
	<polygon points="315.685,512.065 327.353,525.976 317.507,525.87 317.402,535.716 313.463,535.674 313.569,525.828 303.723,525.723 " fill="rgb(0,128,0)" />
	<circle cx="320.278" cy="82.5799" r="5.90796" fill="rgb(255,0,0)" />
	<circle cx="1125.8" cy="34.5893" r="5.90796" fill="rgb(0,0,255)" />
	<circle cx="1127.42" cy="324.617" r="5.90796" fill="rgb(255,0,255)" />
	<circle cx="1128.5" cy="653.997" r="5.90796" fill="rgb(255,0,0)" />
	<circle cx="1128.5" cy="704.91" r="5.90796" fill="rgb(0,0,255)" />
	<polygon points="1127.96,1043.71 1116.19,1029.89 1126.03,1029.91 1126.06,1020.07 1130,1020.08 1129.97,1029.93 1139.82,1029.95 " fill="rgb(0,128,0)" />
	<circle cx="1126.95" cy="1389.82" r="5.90796" fill="rgb(255,0,255)" />
	<circle cx="1127.07" cy="1665.64" r="5.90796" fill="rgb(255,0,0)" />
	<circle cx="1125.87" cy="1723.88" r="5.90796" fill="rgb(0,0,255)" />
	<polygon points="1131.13,1982.83 1114.97,1974.54 1124.09,1970.82 1120.36,1961.7 1124,1960.21 1127.73,1969.33 1136.85,1965.6 " fill="rgb(0,128,0)" />
	<polygon points="1154.47,2032.65 1136.83,2028.34 1144.83,2022.6 1139.09,2014.6 1142.28,2012.3 1148.03,2020.3 1156.03,2014.56 " fill="rgb(0,128,0)" />
	<polygon points="1172.99,2066.04 1158.26,2055.43 1167.83,2053.11 1165.51,2043.54 1169.33,2042.61 1171.66,2052.18 1181.23,2049.86 " fill="rgb(0,128,0)" />
	<polygon points="1175.05,2092.42 1165.08,2077.24 1174.85,2078.49 1176.1,2068.73 1180.01,2069.23 1178.76,2078.99 1188.52,2080.24 " fill="rgb(0,128,0)" />
	<polygon points="1151.75,2273.98 1141.84,2258.76 1151.6,2260.05 1152.89,2250.29 1156.79,2250.81 1155.51,2260.57 1165.27,2261.86 " fill="rgb(0,128,0)" />
	<circle cx="1129.95" cy="2439.1" r="5.90796" fill="rgb(255,0,0)" />
	<circle cx="1143.55" cy="2436.55" r="5.90796" fill="rgb(0,0,255)" />
	<polygon points="1168.72,2248.27 1178.53,2263.54 1168.78,2262.19 1167.43,2271.95 1163.53,2271.41 1164.88,2261.65 1155.12,2260.3 " fill="rgb(0,128,0)" />
	<polygon points="1186.86,2068.16 1203.63,2075.14 1194.84,2079.58 1199.28,2088.37 1195.76,2090.15 1191.32,2081.36 1182.53,2085.8 " fill="rgb(0,128,0)" />
	<polygon points="1159.98,2017.09 1177.26,2022.68 1168.86,2027.82 1173.99,2036.22 1170.63,2038.28 1165.5,2029.88 1157.1,2035.01 " fill="rgb(0,128,0)" />
	<polygon points="1135.4,1965.01 1147.17,1978.84 1137.32,1978.8 1137.28,1988.65 1133.34,1988.64 1133.38,1978.79 1123.53,1978.75 " fill="rgb(0,128,0)" />
	<circle cx="1136.34" cy="1723.6" r="5.90796" fill="rgb(255,0,0)" />
	<circle cx="1137.44" cy="1660.91" r="5.90796" fill="rgb(0,0,255)" />
	<circle cx="1137.08" cy="1310.03" r="5.90796" fill="rgb(255,0,255)" />
	<polygon points="1138.19,952.352 1150.07,966.076 1140.23,966.127 1140.28,975.973 1136.34,975.993 1136.29,966.147 1126.44,966.197 " fill="rgb(0,128,0)" />
	<circle cx="1136.92" cy="704.588" r="5.90796" fill="rgb(255,0,0)" />
	<circle cx="1136.89" cy="654.987" r="5.90796" fill="rgb(0,0,255)" />
	<polygon points="1137.13,272.618 1148.8,286.527 1138.95,286.424 1138.85,296.27 1134.91,296.228 1135.02,286.382 1125.17,286.278 " fill="rgb(0,128,0)" />
	<circle cx="1139.71" cy="27.839" r="5.90796" fill="rgb(255,0,0)" />
	<circle cx="1337.64" cy="20.8048" r="5.90796" fill="rgb(0,0,255)" />
	<polygon points="1346.74,188.974 1334.51,175.558 1344.35,175.256 1344.05,165.414 1347.98,165.293 1348.29,175.135 1358.13,174.833 " fill="rgb(0,128,0)" />
	<circle cx="1353.73" cy="416.68" r="5.90796" fill="rgb(255,0,255)" />
	<circle cx="1361.22" cy="659.087" r="5.90796" fill="rgb(255,0,0)" />
	<circle cx="1363.14" cy="706.895" r="5.90796" fill="rgb(0,0,255)" />
	<circle cx="1377.65" cy="1109.29" r="5.90796" fill="rgb(255,0,255)" />
	<circle cx="1389.93" cy="1476.21" r="5.90796" fill="rgb(255,0,0)" />
	<circle cx="1402.1" cy="1456.29" r="5.90796" fill="rgb(0,0,255)" />
	<circle cx="1390.06" cy="1138.99" r="5.90796" fill="rgb(255,0,255)" />
	<polygon points="1380.24,907.552 1392.45,920.988 1382.61,921.274 1382.9,931.116 1378.96,931.231 1378.68,921.388 1368.83,921.674 " fill="rgb(0,128,0)" />
	<circle cx="1374.42" cy="707.168" r="5.90796" fill="rgb(255,0,0)" />
	<circle cx="1372.71" cy="659.101" r="5.90796" fill="rgb(0,0,255)" />
	<polygon points="1358.34,260.386 1370.51,273.86 1360.67,274.115 1360.93,283.959 1356.99,284.061 1356.73,274.217 1346.89,274.472 " fill="rgb(0,128,0)" />
	<polygon points="1351.65,1.98982 1363.82,15.4645 1353.98,15.7194 1354.23,25.5627 1350.3,25.6647 1350.04,15.8214 1340.2,16.0764 " fill="rgb(0,128,0)" />
	<circle cx="577.307" cy="1696.72" r="5.90796" fill="rgb(0,0,255)" />
	<circle cx="381.001" cy="1695.39" r="5.90796" fill="rgb(255,0,0)" />
	<circle cx="721.253" cy="1130.72" r="5.90796" fill="rgb(0,0,255)" />
	<polygon points="663.239,1145.83 668.613,1128.48 673.857,1136.82 682.191,1131.57 684.289,1134.91 675.955,1140.15 681.2,1148.48 " fill="rgb(0,128,0)" />
	<polygon points="632.44,1169.67 631.996,1151.51 639.627,1157.74 645.85,1150.11 648.902,1152.6 642.679,1160.23 650.309,1166.45 " fill="rgb(0,128,0)" />
	<polygon points="608.641,1208.21 599.169,1192.72 608.89,1194.28 610.456,1184.56 614.345,1185.19 612.778,1194.91 622.499,1196.48 " fill="rgb(0,128,0)" />
	<polygon points="605.062,1241.29 593.423,1227.36 603.269,1227.48 603.395,1217.64 607.333,1217.69 607.207,1227.53 617.053,1227.66 " fill="rgb(0,128,0)" />
	<polygon points="601.421,1529.88 589.727,1515.99 599.573,1516.08 599.659,1506.23 603.598,1506.27 603.511,1516.11 613.358,1516.2 " fill="rgb(0,128,0)" />
	<circle cx="600.237" cy="1664.74" r="5.90796" fill="rgb(255,0,0)" />
	<polygon points="598.806,1987.77 587.071,1973.91 596.918,1973.97 596.976,1964.12 600.914,1964.15 600.856,1973.99 610.703,1974.05 " fill="rgb(0,128,0)" />
	<polygon points="599.435,2211.96 585.581,2200.23 595.303,2198.67 593.74,2188.94 597.629,2188.32 599.192,2198.04 608.914,2196.48 " fill="rgb(0,128,0)" />
	<polygon points="609.277,2247.2 592.198,2241.04 600.763,2236.18 595.905,2227.61 599.331,2225.67 604.189,2234.24 612.753,2229.38 " fill="rgb(0,128,0)" />
	<polygon points="626.6,2273.37 608.683,2270.43 616.218,2264.09 609.879,2256.55 612.892,2254.02 619.232,2261.55 626.766,2255.21 " fill="rgb(0,128,0)" />
	<polygon points="651.664,2297.19 633.765,2300.23 638.829,2291.79 630.384,2286.73 632.41,2283.35 640.854,2288.41 645.919,2279.97 " fill="rgb(0,128,0)" />
	<circle cx="691.686" cy="2321.19" r="5.90796" fill="rgb(255,0,0)" />
	<circle cx="720.949" cy="1143.31" r="5.90796" fill="rgb(0,0,255)" />
	<polygon points="665.461,1160.78 668.993,1142.97 675.08,1150.71 682.82,1144.63 685.255,1147.72 677.514,1153.81 683.601,1161.55 " fill="rgb(0,128,0)" />
	<polygon points="628.388,1195.1 625.576,1177.17 633.955,1182.34 639.128,1173.96 642.479,1176.03 637.306,1184.41 645.684,1189.58 " fill="rgb(0,128,0)" />
	<polygon points="615.882,1226.6 604.483,1212.46 614.325,1212.76 614.619,1202.92 618.556,1203.03 618.262,1212.88 628.104,1213.17 " fill="rgb(0,128,0)" />
	<polygon points="610.832,1406.5 599.054,1392.68 608.901,1392.71 608.928,1382.86 612.866,1382.88 612.839,1392.72 622.686,1392.75 " fill="rgb(0,128,0)" />
	<polygon points="610.04,1674.69 598.33,1660.82 608.177,1660.89 608.253,1651.05 612.191,1651.08 612.115,1660.92 621.961,1661 " fill="rgb(0,128,0)" />
	<polygon points="607.596,1999 595.821,1985.18 605.668,1985.21 605.698,1975.36 609.636,1975.37 609.607,1985.22 619.453,1985.25 " fill="rgb(0,128,0)" />
	<polygon points="609.059,2212.42 595.009,2200.92 604.703,2199.2 602.977,2189.5 606.855,2188.81 608.581,2198.5 618.275,2196.78 " fill="rgb(0,128,0)" />
	<polygon points="618.906,2244.47 601.752,2238.52 610.255,2233.55 605.29,2225.05 608.691,2223.07 613.656,2231.57 622.16,2226.6 " fill="rgb(0,128,0)" />
	<polygon points="634.673,2267.15 616.716,2264.47 624.158,2258.02 617.711,2250.58 620.688,2248 627.135,2255.44 634.577,2248.99 " fill="rgb(0,128,0)" />
	<polygon points="659.681,2290.8 641.716,2293.42 646.974,2285.1 638.649,2279.84 640.753,2276.51 649.078,2281.77 654.336,2273.45 " fill="rgb(0,128,0)" />
	<polygon points="695.56,2309.73 678.95,2317.06 681.794,2307.63 672.367,2304.79 673.504,2301.02 682.931,2303.86 685.775,2294.44 " fill="rgb(0,128,0)" />
	<circle cx="710.728" cy="2314.3" r="5.90796" fill="rgb(255,0,0)" />
	<circle cx="767.102" cy="2316.19" r="5.90796" fill="rgb(0,0,255)" />
	<polygon points="824.438,2281.02 824.069,2299.17 816.725,2292.61 810.166,2299.95 807.228,2297.33 813.787,2289.99 806.443,2283.43 " fill="rgb(0,128,0)" />
	<polygon points="848.956,2246.5 855.847,2263.29 846.498,2260.2 843.408,2269.55 839.668,2268.32 842.759,2258.97 833.41,2255.88 " fill="rgb(0,128,0)" />
	<polygon points="859.424,2203.73 870.965,2217.74 861.12,2217.55 860.925,2227.39 856.987,2227.31 857.182,2217.47 847.338,2217.27 " fill="rgb(0,128,0)" />
	<polygon points="863.996,1966.07 875.7,1979.95 865.854,1979.87 865.774,1989.72 861.836,1989.69 861.915,1979.84 852.069,1979.76 " fill="rgb(0,128,0)" />
	<circle cx="865.867" cy="1734.92" r="5.90796" fill="rgb(255,0,0)" />
	<circle cx="865.945" cy="1672.2" r="5.90796" fill="rgb(0,0,255)" />
	<circle cx="867.828" cy="1407.19" r="5.90796" fill="rgb(255,0,255)" />
	<polygon points="859.937,1222.07 876.705,1229.03 867.92,1233.48 872.368,1242.26 868.854,1244.04 864.406,1235.26 855.621,1239.7 " fill="rgb(0,128,0)" />
	<polygon points="826.885,1168.87 844.973,1167.3 839.236,1175.3 847.24,1181.04 844.945,1184.24 836.942,1178.5 831.206,1186.5 " fill="rgb(0,128,0)" />
	<circle cx="798.978" cy="1148.87" r="5.90796" fill="rgb(0,0,255)" />
	<circle cx="753.336" cy="1135.96" r="5.90796" fill="rgb(255,0,0)" />
	<circle cx="715.754" cy="2352.48" r="5.90796" fill="rgb(0,0,255)" />
	<circle cx="715.062" cy="2440.64" r="5.90796" fill="rgb(255,0,0)" />
	<circle cx="745.164" cy="2434.54" r="5.90796" fill="rgb(0,0,255)" />
	<circle cx="745.723" cy="2351.89" r="5.90796" fill="rgb(255,0,0)" />
	<circle cx="1109.44" cy="2455.67" r="5.90796" fill="rgb(0,0,255)" />
	<circle cx="770.968" cy="2453.54" r="5.90796" fill="rgb(255,0,0)" />
	<circle cx="746.992" cy="2460.83" r="5.90796" fill="rgb(0,0,255)" />
	<circle cx="917.035" cy="2462.57" r="5.90796" fill="rgb(255,0,255)" />
	<circle cx="1109.04" cy="2464.06" r="5.90796" fill="rgb(255,0,0)" />
	<circle cx="1664.21" cy="1315.13" r="5.90796" fill="rgb(0,0,255)" />
	<polygon points="1594.06,1351.07 1598.24,1333.4 1604.04,1341.36 1611.99,1335.55 1614.31,1338.74 1606.36,1344.54 1612.16,1352.49 " fill="rgb(0,128,0)" />
	<circle cx="1435.71" cy="1466.55" r="5.90796" fill="rgb(255,0,0)" />
	<circle cx="1362.04" cy="1526.97" r="5.90796" fill="rgb(0,0,255)" />
	<circle cx="1170.66" cy="1669.85" r="5.90796" fill="rgb(255,0,0)" />
	<circle cx="1106.24" cy="1695.32" r="5.90796" fill="rgb(0,0,255)" />
	<circle cx="894.996" cy="1692.59" r="5.90796" fill="rgb(255,0,0)" />
	<circle cx="894.103" cy="1704.11" r="5.90796" fill="rgb(0,0,255)" />
	<circle cx="1110.08" cy="1706.44" r="5.90796" fill="rgb(255,0,0)" />
	<circle cx="1165.33" cy="1686.77" r="5.90796" fill="rgb(0,0,255)" />
	<circle cx="1369.66" cy="1533.98" r="5.90796" fill="rgb(255,0,0)" />
	<circle cx="1434.73" cy="1481.49" r="5.90796" fill="rgb(0,0,255)" />
	<polygon points="1542.87,1401.06 1538.22,1418.6 1532.63,1410.49 1524.52,1416.08 1522.29,1412.83 1530.4,1407.25 1524.82,1399.14 " fill="rgb(0,128,0)" />
	<polygon points="1613.11,1355.09 1605.61,1371.63 1601.45,1362.7 1592.52,1366.87 1590.86,1363.3 1599.78,1359.13 1595.62,1350.21 " fill="rgb(0,128,0)" />
	<circle cx="1670.87" cy="1328.15" r="5.90796" fill="rgb(255,0,0)" />
	<circle cx="826.494" cy="977.9" r="5.90796" fill="rgb(0,0,255)" />
	<polygon points="827.571,1048.69 814.341,1036.26 824.13,1035.2 823.071,1025.41 826.987,1024.98 828.046,1034.77 837.835,1033.71 " fill="rgb(0,128,0)" />
	<polygon points="832.606,1119.98 822.518,1104.89 832.294,1106.06 833.468,1096.28 837.378,1096.75 836.205,1106.53 845.981,1107.7 " fill="rgb(0,128,0)" />
	<circle cx="829.648" cy="1144.62" r="5.90796" fill="rgb(255,0,0)" />
	<circle cx="898.548" cy="704.083" r="5.90796" fill="rgb(0,0,255)" />
	<circle cx="897.107" cy="882.767" r="5.90796" fill="rgb(255,0,0)" />
	<circle cx="1691.85" cy="1283.25" r="5.90796" fill="rgb(0,0,255)" />
	<polygon points="1686.01,984.987 1698.09,998.542 1688.25,998.732 1688.44,1008.58 1684.5,1008.65 1684.31,998.808 1674.47,998.998 " fill="rgb(0,128,0)" />
	<polygon points="1677.82,720.803 1693.02,730.722 1683.57,733.483 1686.33,742.935 1682.55,744.039 1679.79,734.588 1670.34,737.348 " fill="rgb(0,128,0)" />
	<polygon points="1663.73,696.025 1681.88,695.797 1675.57,703.353 1683.12,709.666 1680.6,712.689 1673.04,706.375 1666.73,713.931 " fill="rgb(0,128,0)" />
	<polygon points="1637.15,682.034 1652.38,672.155 1651.07,681.914 1660.83,683.223 1660.31,687.126 1650.55,685.818 1649.24,695.577 " fill="rgb(0,128,0)" />
	<circle cx="1598.76" cy="676.886" r="5.90796" fill="rgb(255,0,255)" />
	<circle cx="1389.91" cy="677.361" r="5.90796" fill="rgb(255,0,0)" />
	<circle cx="1341.67" cy="678.56" r="5.90796" fill="rgb(0,0,255)" />
	<circle cx="1158.7" cy="677.559" r="5.90796" fill="rgb(255,0,0)" />
	<circle cx="1104.92" cy="678.885" r="5.90796" fill="rgb(0,0,255)" />
	<circle cx="924.183" cy="678.984" r="5.90796" fill="rgb(255,0,0)" />
	<circle cx="1159.73" cy="685.719" r="5.90796" fill="rgb(0,0,255)" />
	<circle cx="1341.68" cy="686.695" r="5.90796" fill="rgb(255,0,0)" />
	<circle cx="1390.07" cy="687.863" r="5.90796" fill="rgb(0,0,255)" />
	<polygon points="1610.94,687.414 1596.88,698.894 1597.11,689.05 1587.27,688.813 1587.36,684.875 1597.21,685.113 1597.45,675.269 " fill="rgb(0,128,0)" />
	<polygon points="1639.12,694.052 1621.19,696.877 1626.35,688.495 1617.97,683.328 1620.04,679.975 1628.42,685.142 1633.59,676.76 " fill="rgb(0,128,0)" />
	<polygon points="1664.72,719.131 1649.51,709.209 1658.97,706.45 1656.21,696.998 1659.99,695.894 1662.75,705.346 1672.2,702.587 " fill="rgb(0,128,0)" />
	<polygon points="1670.34,749.466 1658.27,735.904 1668.12,735.72 1667.94,725.875 1671.87,725.802 1672.06,735.647 1681.9,735.463 " fill="rgb(0,128,0)" />
	<circle cx="1675.13" cy="1006.51" r="5.90796" fill="rgb(255,0,255)" />
	<circle cx="1680.2" cy="1281.66" r="5.90796" fill="rgb(255,0,0)" />
	<polygon points="861.848,932.048 850.141,918.17 859.988,918.248 860.065,908.402 864.004,908.433 863.926,918.279 873.772,918.357 " fill="rgb(0,128,0)" />
	<circle cx="861.842" cy="932.828" r="5.90796" fill="rgb(255,0,255)" />
	<polygon points="875.183,932.108 863.476,918.23 873.322,918.308 873.4,908.462 877.338,908.493 877.26,918.339 887.107,918.417 " fill="rgb(0,128,0)" />
	<circle cx="875.176" cy="932.886" r="5.90796" fill="rgb(255,0,255)" />
	<polygon points="888.69,932.421 876.537,918.932 886.38,918.689 886.137,908.845 890.075,908.748 890.318,918.592 900.161,918.348 " fill="rgb(0,128,0)" />
	<circle cx="888.709" cy="933.213" r="5.90796" fill="rgb(255,0,255)" />
	<polygon points="903.062,932.776 891.122,919.098 900.969,919.009 900.88,909.163 904.819,909.128 904.907,918.974 914.753,918.886 " fill="rgb(0,128,0)" />
	<circle cx="903.066" cy="933.297" r="5.90796" fill="rgb(255,0,255)" />
	<polygon points="915.994,932.831 904.281,918.957 914.128,919.031 914.201,909.185 918.14,909.214 918.066,919.061 927.912,919.134 " fill="rgb(0,128,0)" />
	<circle cx="915.99" cy="933.347" r="5.90796" fill="rgb(255,0,255)" />
	<polygon points="929.107,933.142 917.165,919.466 927.012,919.375 926.921,909.529 930.86,909.493 930.95,919.339 940.796,919.249 " fill="rgb(0,128,0)" />
	<circle cx="929.112" cy="933.664" r="5.90796" fill="rgb(255,0,255)" />
	<circle cx="787.455" cy="886.943" r="5.90796" fill="rgb(255,255,0)" />
	<circle cx="897.064" cy="893.001" r="5.90796" fill="rgb(0,0,255)" />
	<circle cx="997.363" cy="893.847" r="5.90796" fill="rgb(255,255,0)" />
	<circle cx="996.664" cy="973.872" r="5.90796" fill="rgb(255,255,0)" />
	<circle cx="827.031" cy="972.664" r="5.90796" fill="rgb(255,0,0)" />
	<circle cx="787.044" cy="971.961" r="5.90796" fill="rgb(255,255,0)" />
</svg>
