<?xml version="1.0" standalone="no" ?>
<!DOCTYPE svg PUBLIC "-//W3C//DTD SVG 1.1//EN" "http://www.w3.org/Graphics/SVG/1.1/DTD/svg11.dtd">
<svg width="720px" height="1095px" xmlns="http://www.w3.org/2000/svg" version="1.1" >
	<line x1="217.746" y1="1091.51" x2="286.641" y2="883.371" stroke-width="9" stroke="rgb(64,64,64)" />
	<line x1="286.641" y1="883.371" x2="350.326" y2="706.781" stroke-width="9" stroke="rgb(64,64,64)" />
	<line x1="350.326" y1="706.781" x2="401.455" y2="564.773" stroke-width="9" stroke="rgb(64,64,64)" />
	<line x1="401.455" y1="564.773" x2="426.686" y2="462.844" stroke-width="9" stroke="rgb(64,64,64)" />
	<line x1="426.686" y1="462.844" x2="423.258" y2="390.984" stroke-width="9" stroke="rgb(64,64,64)" />
	<line x1="423.258" y1="390.984" x2="416.977" y2="306.867" stroke-width="9" stroke="rgb(64,64,64)" />
	<line x1="416.977" y1="306.867" x2="433.084" y2="226.805" stroke-width="9" stroke="rgb(64,64,64)" />
	<line x1="433.084" y1="226.805" x2="486.791" y2="75.4688" stroke-width="9" stroke="rgb(64,64,64)" />
	<line x1="498.633" y1="2.94141" x2="440.537" y2="163.781" stroke-width="9" stroke="rgb(64,64,64)" />
	<line x1="440.537" y1="163.781" x2="408.311" y2="279.492" stroke-width="9" stroke="rgb(64,64,64)" />
	<line x1="408.311" y1="279.492" x2="409.037" y2="364.477" stroke-width="9" stroke="rgb(64,64,64)" />
	<line x1="409.037" y1="364.477" x2="411.58" y2="457.559" stroke-width="9" stroke="rgb(64,64,64)" />
	<line x1="411.58" y1="457.559" x2="391.799" y2="541.641" stroke-width="9" stroke="rgb(64,64,64)" />
	<line x1="391.799" y1="541.641" x2="360.363" y2="633.012" stroke-width="9" stroke="rgb(64,64,64)" />
	<line x1="360.363" y1="633.012" x2="320.648" y2="746.777" stroke-width="9" stroke="rgb(64,64,64)" />
	<polygon points="222.46,1077.27 231.201,1098.59 219.334,1094.67 215.406,1106.53 210.659,1104.96 214.587,1093.1 202.72,1089.17 " fill="rgb(0,128,0)" />
	<polygon points="291.729,869.261 299.903,890.812 288.144,886.571 283.904,898.33 279.2,896.633 283.441,884.875 271.682,880.634 " fill="rgb(0,128,0)" />
	<polygon points="355.408,692.668 363.592,714.215 351.831,709.98 347.597,721.741 342.893,720.047 347.127,708.287 335.366,704.052 " fill="rgb(0,128,0)" />
	<polygon points="405.059,550.213 415.415,570.804 403.281,567.801 400.278,579.935 395.424,578.733 398.428,566.599 386.294,563.596 " fill="rgb(0,128,0)" />
	<polygon points="425.971,447.861 441.788,464.626 429.302,465.222 429.897,477.708 424.903,477.946 424.307,465.46 411.822,466.056 " fill="rgb(0,128,0)" />
	<polygon points="422.141,376.026 438.402,392.36 425.937,393.291 426.868,405.757 421.882,406.129 420.951,393.664 408.486,394.594 " fill="rgb(0,128,0)" />
	<polygon points="419.935,292.162 431.189,312.277 418.934,309.811 416.469,322.066 411.567,321.079 414.033,308.825 401.778,306.36 " fill="rgb(0,128,0)" />
	<polygon points="438.101,212.668 446.384,234.177 434.604,229.997 430.423,241.777 425.711,240.105 429.892,228.325 418.112,224.144 " fill="rgb(0,128,0)" />
	<polygon points="491.808,61.3325 500.091,82.8415 488.311,78.6609 484.13,90.4411 479.418,88.7688 483.599,76.9887 471.819,72.808 " fill="rgb(0,128,0)" />
	<polygon points="493.537,17.0493 485.374,-4.50571 497.131,-0.25921 501.377,-12.0158 506.08,-10.3172 501.833,1.43939 513.59,5.68589 " fill="rgb(0,128,0)" />
	<polygon points="436.513,178.231 426.758,157.348 438.799,160.702 442.153,148.66 446.97,150.002 443.616,162.044 455.658,165.397 " fill="rgb(0,128,0)" />
	<polygon points="408.439,294.492 393.29,277.121 405.789,277.014 405.682,264.514 410.682,264.471 410.789,276.971 423.289,276.864 " fill="rgb(0,128,0)" />
	<polygon points="409.447,379.471 393.974,362.387 406.47,362.046 406.128,349.55 411.127,349.414 411.468,361.909 423.963,361.568 " fill="rgb(0,128,0)" />
	<polygon points="408.145,472.16 397.551,451.69 409.719,454.553 412.582,442.385 417.449,443.53 414.586,455.698 426.754,458.56 " fill="rgb(0,128,0)" />
	<polygon points="386.919,555.825 378.428,534.397 390.248,538.463 394.315,526.643 399.043,528.27 394.976,540.09 406.796,544.157 " fill="rgb(0,128,0)" />
	<polygon points="355.419,647.174 347.025,625.708 358.827,629.827 362.947,618.026 367.667,619.674 363.548,631.475 375.349,635.595 " fill="rgb(0,128,0)" />
	<polygon points="315.705,760.939 307.311,739.473 319.112,743.593 323.232,731.792 327.953,733.439 323.833,745.241 335.634,749.361 " fill="rgb(0,128,0)" />
</svg>
